<?xml version="1.0" encoding="utf-8"?>
<svg xmlns="http://www.w3.org/2000/svg" fill="none" height="53" viewBox="0 0 158 53" width="158">
<path d="M27.0783 2.48418C24.7053 3.2742 23.0803 4.90518 22.3581 7.17323C22.0744 8.09066 22.0744 11.2507 22.3839 11.531C22.616 11.7604 25.995 10.9449 27.3363 10.3333C29.4256 9.39036 31.2054 7.81036 32.6756 5.66972L33.9911 3.68196L33.3979 3.22327C32.624 2.63707 30.5089 2 29.3482 2C28.8323 2.02549 27.8264 2.22937 27.0783 2.48418Z" fill="#B70902"/>
<path d="M33.7067 5.97656C31.8237 8.98365 28.2899 11.4811 24.9368 12.1946C22.7185 12.6533 22.7185 12.6533 23.2086 13.1375C23.5697 13.5198 23.8534 13.5198 25.401 13.2904C27.8515 12.9083 30.3019 11.7104 32.2364 9.90108C34.1709 8.11721 35.7186 5.7217 35.3575 5.11011C34.8931 4.39651 34.6352 4.52397 33.7067 5.97656Z" fill="#B70902"/>
<path d="M35.1254 8.16925C33.0619 11.2018 30.044 13.266 26.2782 14.1579C24.5242 14.5657 24.4468 14.6166 24.8595 15.0498C25.0658 15.3048 25.917 15.738 26.7165 16.0437C29.5023 17.0634 32.9589 16.3241 34.7643 14.2854C36.1829 12.6799 36.673 11.4822 36.673 9.39247C36.673 6.53828 36.3893 6.30891 35.1254 8.16925Z" fill="#B70902"/>
<path d="M100.324 25.959C100.362 35.0405 100.388 39.891 100.459 42.5231C100.494 43.834 100.541 44.6189 100.611 45.108C100.681 45.5983 100.785 45.8892 101.013 46.1144C101.324 46.4216 101.716 46.5561 102.356 46.6373C102.99 46.7176 103.965 46.756 105.531 46.7941H105.533L109.273 46.8706L109.784 46.881V46.3707V6.58984V6.08984H109.284H100.772H100.27L100.272 6.59119L100.324 25.959Z" fill="url(#paint0_linear_6228_86)"/>
<path d="M100.324 25.959C100.362 35.0405 100.388 39.891 100.459 42.5231C100.494 43.834 100.541 44.6189 100.611 45.108C100.681 45.5983 100.785 45.8892 101.013 46.1144C101.324 46.4216 101.716 46.5561 102.356 46.6373C102.99 46.7176 103.965 46.756 105.531 46.7941H105.533L109.273 46.8706L109.784 46.881V46.3707V6.58984V6.08984H109.284H100.772H100.27L100.272 6.59119L100.324 25.959Z" fill="url(#paint1_linear_6228_86)"/>
<path d="M113.168 28.4794V28.2767V17.4205V6.58984V6.08984H113.668H122.696H123.196V6.58984V28.6979L127.713 33.7803L127.714 33.782C129.35 35.6407 130.567 36.9696 131.459 37.8699C131.906 38.3202 132.265 38.6574 132.55 38.8979C132.843 39.145 133.031 39.2656 133.137 39.3121L133.146 39.3162C133.483 39.4722 133.874 39.5794 134.746 39.644C135.627 39.7093 136.956 39.7286 139.152 39.7286H144.388H144.901L144.888 40.2415L144.811 43.2231L144.733 46.2304L144.72 46.7111L144.239 46.7174L138.358 46.7939H138.356C136.585 46.8067 135.006 46.7939 133.792 46.7586C133.185 46.741 132.667 46.7177 132.26 46.6887C131.867 46.6608 131.54 46.6254 131.341 46.5742L131.338 46.5732C130.582 46.3725 129.986 46.0701 129.155 45.3375C128.347 44.6256 127.295 43.4864 125.624 41.6062M113.168 28.4794L113.309 28.6248L118.054 33.5168M125.624 41.6062C125.623 41.606 125.623 41.6059 125.623 41.6058L125.997 41.2736M125.624 41.6062C125.624 41.6064 125.624 41.6059 125.624 41.6062ZM125.624 41.6062C124.056 39.8539 120.657 36.2155 118.055 33.5173L118.414 33.1697M125.997 41.2736C124.424 39.5153 121.019 35.871 118.414 33.1697L125.997 41.2736ZM144.388 40.2286V40.7286H144.375L144.388 40.2286ZM144.388 40.2286L143.888 40.2157V40.2286H144.388Z" fill="url(#paint2_linear_6228_86)"/>
<path d="M113.168 28.4794V28.2767V17.4205V6.58984V6.08984H113.668H122.696H123.196V6.58984V28.6979L127.713 33.7803L127.714 33.782C129.35 35.6407 130.567 36.9696 131.459 37.8699C131.906 38.3202 132.265 38.6574 132.55 38.8979C132.843 39.145 133.031 39.2656 133.137 39.3121L133.146 39.3162C133.483 39.4722 133.874 39.5794 134.746 39.644C135.627 39.7093 136.956 39.7286 139.152 39.7286H144.388H144.901L144.888 40.2415L144.811 43.2231L144.733 46.2304L144.72 46.7111L144.239 46.7174L138.358 46.7939H138.356C136.585 46.8067 135.006 46.7939 133.792 46.7586C133.185 46.741 132.667 46.7177 132.26 46.6887C131.867 46.6608 131.54 46.6254 131.341 46.5742L131.338 46.5732C130.582 46.3725 129.986 46.0701 129.155 45.3375C128.347 44.6256 127.295 43.4864 125.624 41.6062M113.168 28.4794L113.309 28.6248L118.054 33.5168M125.624 41.6062C125.623 41.606 125.623 41.6059 125.623 41.6058L125.997 41.2736M125.624 41.6062C125.624 41.6064 125.624 41.6059 125.624 41.6062ZM125.624 41.6062C124.056 39.8539 120.657 36.2155 118.055 33.5173L118.414 33.1697M125.997 41.2736C124.424 39.5153 121.019 35.871 118.414 33.1697L125.997 41.2736ZM144.388 40.2286V40.7286H144.375L144.388 40.2286ZM144.388 40.2286L143.888 40.2157V40.2286H144.388Z" fill="url(#paint3_linear_6228_86)"/>
<path d="M147.988 14.7447V15.2447H148.488H157H157.5V14.7447V6.58984V6.08984H157H148.488H147.988V6.58984V10.6673V14.7447Z" fill="url(#paint4_linear_6228_86)"/>
<path d="M147.988 14.7447V15.2447H148.488H157H157.5V14.7447V6.58984V6.08984H157H148.488H147.988V6.58984V10.6673V14.7447Z" fill="url(#paint5_linear_6228_86)"/>
<path d="M135.908 18.0687C134.813 18.2308 133.955 18.5087 132.886 19.2169C131.845 19.9069 130.603 21.0069 128.724 22.7872C128.724 22.7873 128.724 22.7871 128.724 22.7872L125.164 26.151L124.797 26.4986L125.149 26.8622L127.419 29.2067L129.689 31.5512L130.035 31.9093L130.395 31.5636L133.387 28.6839L133.388 28.6822C134.191 27.9015 135.033 27.1523 135.735 26.5715C136.086 26.281 136.399 26.0353 136.654 25.85C136.914 25.6598 137.083 25.5559 137.16 25.5206C137.426 25.4104 137.823 25.3217 138.451 25.2633C139.079 25.205 139.905 25.1795 141.01 25.1795H144.106H144.606V24.6795V18.3085V17.8047L144.102 17.8085L140.697 17.834H140.694C138.815 17.8595 136.642 17.9612 135.908 18.0687Z" fill="url(#paint6_linear_6228_86)"/>
<path d="M135.908 18.0687C134.813 18.2308 133.955 18.5087 132.886 19.2169C131.845 19.9069 130.603 21.0069 128.724 22.7872C128.724 22.7873 128.724 22.7871 128.724 22.7872L125.164 26.151L124.797 26.4986L125.149 26.8622L127.419 29.2067L129.689 31.5512L130.035 31.9093L130.395 31.5636L133.387 28.6839L133.388 28.6822C134.191 27.9015 135.033 27.1523 135.735 26.5715C136.086 26.281 136.399 26.0353 136.654 25.85C136.914 25.6598 137.083 25.5559 137.16 25.5206C137.426 25.4104 137.823 25.3217 138.451 25.2633C139.079 25.205 139.905 25.1795 141.01 25.1795H144.106H144.606V24.6795V18.3085V17.8047L144.102 17.8085L140.697 17.834H140.694C138.815 17.8595 136.642 17.9612 135.908 18.0687Z" fill="url(#paint7_linear_6228_86)"/>
<path d="M147.988 46.0864V46.5864H148.488H157H157.5V46.0864V18.3086V17.8086H157H148.488H147.988V18.3086V32.1974V46.0864Z" fill="url(#paint8_linear_6228_86)"/>
<path d="M147.988 46.0864V46.5864H148.488H157H157.5V46.0864V18.3086V17.8086H157H148.488H147.988V18.3086V32.1974V46.0864Z" fill="url(#paint9_linear_6228_86)"/>
<path d="M59.7087 23.8005L59.6445 23.9146V24.0455V32.2004C59.6445 36.0908 59.6507 38.162 59.7261 39.4013C59.764 40.0245 59.8204 40.4603 59.9092 40.8232C59.9993 41.1919 60.1187 41.4673 60.259 41.7644C60.9847 43.3348 62.6733 44.9647 64.3849 45.798L65.594 46.408L65.6991 46.461L65.8167 46.4616L81.2414 46.5381L96.6404 46.6145L97.1428 46.617V46.1145V39.973V39.473H96.6428H83.1268C76.491 39.473 73.1254 39.4729 71.3318 39.4064C70.4289 39.373 69.9624 39.3235 69.688 39.2601C69.4566 39.2066 69.3815 39.1502 69.2521 39.047L69.2428 39.0398L68.7696 38.68V25.9754L69.2428 25.6156L69.2521 25.6084C69.3815 25.5052 69.4566 25.4488 69.688 25.3954C69.9624 25.3319 70.4289 25.2824 71.3318 25.249C73.1254 25.1825 76.491 25.1824 83.1268 25.1824H96.6427H97.1427V24.6824V18.5664V18.0664H96.6427H81.6307C74.7475 18.0792 70.9528 18.0919 68.726 18.1558C66.5094 18.2195 65.788 18.3338 65.091 18.5771C63.1884 19.205 61.4683 20.6659 60.4821 22.4246L59.7087 23.8005Z" fill="url(#paint10_linear_6228_86)"/>
<path d="M59.7087 23.8005L59.6445 23.9146V24.0455V32.2004C59.6445 36.0908 59.6507 38.162 59.7261 39.4013C59.764 40.0245 59.8204 40.4603 59.9092 40.8232C59.9993 41.1919 60.1187 41.4673 60.259 41.7644C60.9847 43.3348 62.6733 44.9647 64.3849 45.798L65.594 46.408L65.6991 46.461L65.8167 46.4616L81.2414 46.5381L96.6404 46.6145L97.1428 46.617V46.1145V39.973V39.473H96.6428H83.1268C76.491 39.473 73.1254 39.4729 71.3318 39.4064C70.4289 39.373 69.9624 39.3235 69.688 39.2601C69.4566 39.2066 69.3815 39.1502 69.2521 39.047L69.2428 39.0398L68.7696 38.68V25.9754L69.2428 25.6156L69.2521 25.6084C69.3815 25.5052 69.4566 25.4488 69.688 25.3954C69.9624 25.3319 70.4289 25.2824 71.3318 25.249C73.1254 25.1825 76.491 25.1824 83.1268 25.1824H96.6427H97.1427V24.6824V18.5664V18.0664H96.6427H81.6307C74.7475 18.0792 70.9528 18.0919 68.726 18.1558C66.5094 18.2195 65.788 18.3338 65.091 18.5771C63.1884 19.205 61.4683 20.6659 60.4821 22.4246L59.7087 23.8005Z" fill="url(#paint11_linear_6228_86)"/>
<path d="M72.4141 35.3818V35.8818H72.9141H92.0017H92.5017V35.3818V29.2656V28.7656H92.0017H72.9141H72.4141V29.2656V32.3237V35.3818Z" fill="url(#paint12_linear_6228_86)"/>
<path d="M113.168 46.3428V46.8486L113.674 46.8428L118.136 46.7918L118.139 46.7917L122.576 46.7152L123.038 46.7073L123.066 46.2455L123.143 44.9713L123.144 44.9615L123.196 43.6873L123.204 43.484L123.068 43.3326L119.174 39.0021C117.069 36.6178 115.027 34.3953 114.642 34.0134L114.027 33.3798L113.168 32.4961V33.7282V40.0483V46.3428Z" fill="url(#paint13_linear_6228_86)"/>
<path d="M113.168 46.3428V46.8486L113.674 46.8428L118.136 46.7918L118.139 46.7917L122.576 46.7152L123.038 46.7073L123.066 46.2455L123.143 44.9713L123.144 44.9615L123.196 43.6873L123.204 43.484L123.068 43.3326L119.174 39.0021C117.069 36.6178 115.027 34.3953 114.642 34.0134L114.027 33.3798L113.168 32.4961V33.7282V40.0483V46.3428Z" fill="url(#paint14_linear_6228_86)"/>
<path d="M0.000485827 17.2491C0.0548217 17.3874 0.815345 18.6878 1.71165 20.1542L3.3413 22.7827L6.89965 22.8104C8.85529 22.8104 11.8974 22.8933 13.69 23.0039L16.9223 23.1699L22.0557 34.6799C24.9076 41.0158 27.814 47.4902 28.5472 49.0949L29.8781 52L30.6112 50.4784C31.0458 49.6483 33.9793 43.1463 37.1571 36.008L42.9426 23.087L44.3279 23.0593C45.0884 23.0316 48.1304 22.9487 51.1183 22.8379L56.5233 22.6723L58.2617 19.9051L60 17.1383L49.0539 17.0554C43.024 17.0277 37.9722 17.0554 37.8362 17.1107C37.6733 17.1661 35.8263 21.0119 33.7621 25.6601C31.6707 30.3086 29.9322 34.0713 29.8779 34.0159C29.7964 33.9605 28.7915 31.7471 27.5964 29.1186C26.4285 26.4901 24.7174 22.6723 23.7939 20.6522L22.137 17H11.028C4.45491 17 -0.0538522 17.1106 0.000485827 17.2491Z" fill="url(#paint15_linear_6228_86)"/>
<path d="M4.05946 25.3989C4.22828 25.6522 5.15675 26.9938 6.14159 28.3861L7.91419 30.9178L13.4571 30.9938C16.749 31.0191 19 30.9684 19 30.8166C19 30.69 18.381 29.3483 17.6213 27.8293L16.2426 25.0954L10.0244 25.0192C4.11569 24.9685 3.80621 24.9939 4.05946 25.3989Z" fill="url(#paint16_linear_6228_86)"/>
<path d="M42.5222 27.9C41.6919 29.5 41 30.85 41 30.9C41 30.95 43.4355 31 46.3967 31H51.7933L53.26 28.925C54.0626 27.8 55.0036 26.45 55.3633 25.925L56 25H44.0167L42.5222 27.9Z" fill="url(#paint17_linear_6228_86)"/>
<path d="M10.3 35.3917C11.0393 36.7333 11.9058 38.3082 12.2373 38.8916L12.8235 40H22L21.7705 39.3292C21.6432 38.9795 21.0313 37.4042 20.3941 35.8293L19.2215 33H9L10.3 35.3917Z" fill="#FFBA02"/>
<path d="M38.5309 36.1208C37.7551 37.8708 37.0946 39.4458 37.008 39.6208C36.8931 39.9126 37.9849 40 41.8635 40H46.8914L48.9313 36.6458C50.0805 34.7791 51 33.2042 51 33.1458C51 33.0584 48.5004 33 45.4548 33H39.91L38.5309 36.1208Z" fill="#FFBA02"/>
<path d="M14 41.125C14 41.2 14.8585 42.5502 15.9045 44.125L17.8091 47H21.9674C25.1869 47 26.099 46.925 25.9917 46.675C25.9119 46.525 25.2947 45.1749 24.5703 43.675L23.2827 41H18.6414C16.0926 41 14 41.05 14 41.125Z" fill="#FFBA02"/>
<path d="M35.391 43.8C34.6273 45.35 34 46.7 34 46.8C34 46.925 35.8273 47 38.0638 47H42.1275L44.0639 44.15C45.1276 42.575 46 41.225 46 41.15C46 41.0749 43.9276 41 41.4185 41H36.8092L35.391 43.8Z" fill="#FFBA02"/>
<rect fill="#AE0C01" height="10" rx="3" width="37" x="60" y="5"/>
<rect fill="white" height="6" width="1" x="66" y="7"/>
<rect fill="white" height="1" width="5" x="68" y="12"/>
<rect fill="white" height="6" width="1" x="74" y="7"/>
<path d="M77 7H75.5L79 13L82.5 7H81L79 10.5L77 7Z" fill="white"/>
<path d="M85 9.5H91V10.5H85V13H84V7H85V9.5Z" fill="white"/>
<rect fill="white" height="1" width="6" x="86" y="7"/>
<rect fill="white" height="1" width="6" x="86" y="12"/>
<defs>
<linearGradient gradientUnits="userSpaceOnUse" id="paint0_linear_6228_86" x1="105.027" x2="105.027" y1="6.08984" y2="46.881">
<stop stop-color="#FFC90A"/>
<stop offset="1" stop-color="#FFC709"/>
</linearGradient>
<linearGradient gradientUnits="userSpaceOnUse" id="paint1_linear_6228_86" x1="105.027" x2="105.027" y1="12.4999" y2="42.2192">
<stop stop-color="#FFC90A"/>
<stop offset="1" stop-color="#FFB700"/>
</linearGradient>
<linearGradient gradientUnits="userSpaceOnUse" id="paint2_linear_6228_86" x1="129.034" x2="129.034" y1="6.08984" y2="46.7988">
<stop stop-color="#FFC90A"/>
<stop offset="1" stop-color="#FFC709"/>
</linearGradient>
<linearGradient gradientUnits="userSpaceOnUse" id="paint3_linear_6228_86" x1="129.034" x2="129.034" y1="12.487" y2="42.1463">
<stop stop-color="#FFC90A"/>
<stop offset="1" stop-color="#FFB700"/>
</linearGradient>
<linearGradient gradientUnits="userSpaceOnUse" id="paint4_linear_6228_86" x1="152.744" x2="152.744" y1="6.08984" y2="15.2447">
<stop stop-color="#FFC90A"/>
<stop offset="1" stop-color="#FFC709"/>
</linearGradient>
<linearGradient gradientUnits="userSpaceOnUse" id="paint5_linear_6228_86" x1="152.744" x2="152.744" y1="7.52846" y2="14.1984">
<stop stop-color="#FFC90A"/>
<stop offset="1" stop-color="#FFB700"/>
</linearGradient>
<linearGradient gradientUnits="userSpaceOnUse" id="paint6_linear_6228_86" x1="134.701" x2="134.701" y1="17.8047" y2="31.9093">
<stop stop-color="#FFC90A"/>
<stop offset="1" stop-color="#FFC709"/>
</linearGradient>
<linearGradient gradientUnits="userSpaceOnUse" id="paint7_linear_6228_86" x1="134.701" x2="134.701" y1="20.0211" y2="30.2973">
<stop stop-color="#FFC90A"/>
<stop offset="1" stop-color="#FFB700"/>
</linearGradient>
<linearGradient gradientUnits="userSpaceOnUse" id="paint8_linear_6228_86" x1="152.744" x2="152.744" y1="17.8086" y2="46.5864">
<stop stop-color="#FFC90A"/>
<stop offset="1" stop-color="#FFC709"/>
</linearGradient>
<linearGradient gradientUnits="userSpaceOnUse" id="paint9_linear_6228_86" x1="152.744" x2="152.744" y1="22.3308" y2="43.2975">
<stop stop-color="#FFC90A"/>
<stop offset="1" stop-color="#FFB700"/>
</linearGradient>
<linearGradient gradientUnits="userSpaceOnUse" id="paint10_linear_6228_86" x1="78.3937" x2="78.3937" y1="18.0664" y2="46.617">
<stop stop-color="#FFC90A"/>
<stop offset="1" stop-color="#FFC709"/>
</linearGradient>
<linearGradient gradientUnits="userSpaceOnUse" id="paint11_linear_6228_86" x1="78.3937" x2="78.3937" y1="22.5529" y2="43.3541">
<stop stop-color="#FFC90A"/>
<stop offset="1" stop-color="#FFB700"/>
</linearGradient>
<linearGradient gradientUnits="userSpaceOnUse" id="paint12_linear_6228_86" x1="82.4579" x2="82.4579" y1="28.7656" y2="35.8818">
<stop stop-color="#FFC90A"/>
<stop offset="1" stop-color="#FFC709"/>
</linearGradient>
<linearGradient gradientUnits="userSpaceOnUse" id="paint13_linear_6228_86" x1="118.186" x2="118.186" y1="32.4961" y2="46.8486">
<stop stop-color="#FFC90A"/>
<stop offset="1" stop-color="#FFC709"/>
</linearGradient>
<linearGradient gradientUnits="userSpaceOnUse" id="paint14_linear_6228_86" x1="118.186" x2="118.186" y1="34.7515" y2="45.2083">
<stop stop-color="#FFC90A"/>
<stop offset="1" stop-color="#FFB700"/>
</linearGradient>
<linearGradient gradientUnits="userSpaceOnUse" id="paint15_linear_6228_86" x1="30" x2="30" y1="22.5" y2="48">
<stop stop-color="#FFC90A"/>
<stop offset="1" stop-color="#FFB700"/>
</linearGradient>
<linearGradient gradientUnits="userSpaceOnUse" id="paint16_linear_6228_86" x1="11.5" x2="11.5" y1="25" y2="31">
<stop stop-color="#FFC90A"/>
<stop offset="1" stop-color="#FFC709"/>
</linearGradient>
<linearGradient gradientUnits="userSpaceOnUse" id="paint17_linear_6228_86" x1="48.5" x2="48.5" y1="25" y2="31">
<stop stop-color="#FFC90A"/>
<stop offset="1" stop-color="#FFC709"/>
</linearGradient>
</defs>
</svg>