<?xml version="1.0" encoding="UTF-8"?>
<!DOCTYPE svg PUBLIC "-//W3C//DTD SVG 1.1//EN" "http://www.w3.org/Graphics/SVG/1.1/DTD/svg11.dtd">
<!-- Creator: CorelDRAW X7 -->
<svg xmlns="http://www.w3.org/2000/svg" xml:space="preserve" width="43.3492mm" height="43.3492mm" version="1.1" style="shape-rendering:geometricPrecision; text-rendering:geometricPrecision; image-rendering:optimizeQuality; fill-rule:evenodd; clip-rule:evenodd"
viewBox="0 0 4335 4335"
 xmlns:xlink="http://www.w3.org/1999/xlink">
 <defs>
  <style type="text/css">
   <![CDATA[
    .fil2 {fill:#FEFEFE}
    .fil0 {fill:#4A4A4A}
    .fil1 {fill:#ED1F23}
   ]]>
  </style>
 </defs>
 <g id="Layer_x0020_1">
  <metadata id="CorelCorpID_0Corel-Layer"/>
  <g id="_1192961750848">
   <circle id="Oval" class="fil0" cx="2167" cy="2167" r="2159"/>
   <circle id="color" class="fil1" cx="3317" cy="1583" r="561"/>
   <path class="fil2" d="M2123 1664l302 29c10,-30 22,-25 68,-50 165,-91 693,-357 855,-324 33,6 37,42 49,73 24,64 76,182 109,244 13,23 41,59 35,80 -49,18 -52,-42 -90,-30 -10,4 -69,40 -82,49 -108,66 -230,124 -348,175 -41,17 -51,29 -97,11 -31,-12 -68,-23 -97,-37 0,-31 19,-24 9,-67 -34,-21 -324,-54 -392,-64l-804 -111c-67,-9 -141,-20 -209,-3 -51,13 -123,54 -142,89 2,21 15,30 28,42 16,15 24,21 38,36 18,19 54,65 74,75 38,1 88,-48 120,-42 20,48 -33,63 -67,81 -33,17 -196,99 -212,114 -21,21 -39,91 -38,130 20,-3 232,-110 277,-134 19,-9 32,-20 49,-9 14,9 28,23 29,44 -16,6 -36,18 -51,26 -21,11 -42,18 -37,45 6,35 49,0 103,-26 32,-15 208,-104 225,-101 11,29 -33,45 -59,58 -28,14 -53,29 -83,43 -54,27 -109,58 -164,85 -55,27 -109,52 -167,81 -158,78 -183,83 -345,-37 -47,-34 -95,-69 -142,-105 -101,-78 -146,-60 -264,9 -26,15 -63,26 -50,68 8,11 28,-3 37,-8 12,-7 21,-11 34,-17 20,-9 52,-31 74,-32 4,31 -29,39 -50,51 -108,62 -168,53 -149,157 30,4 116,-58 140,-53l262 247c24,20 46,24 74,2 -7,-16 -98,-106 -117,-128l-90 -97c-16,-14 -25,-17 -26,-39 71,-37 92,14 180,67 110,65 139,44 219,56 -4,13 -8,11 -34,24 -71,36 -97,40 -75,93 22,0 390,-157 441,-178 74,-31 145,-61 219,-91 63,-26 54,-42 126,18 28,23 27,34 86,15 197,-63 476,-172 669,-258 37,-16 69,-36 111,-45 19,-4 135,-2 151,1 -8,19 -89,43 -111,51 -451,172 -1152,438 -1601,533 -75,15 -228,17 -274,58 4,11 32,43 41,51 25,20 42,1 68,-2 13,14 19,35 34,55 44,2 241,-70 297,-88 479,-150 993,-302 1465,-463 203,-70 626,-239 798,-360 108,-76 108,-123 51,-262 -19,-48 -97,-230 -119,-264 -58,-87 -200,-36 -303,-10 -98,26 -200,56 -299,83 -190,52 -196,-53 -317,-42 -69,7 -218,89 -267,120 -78,51 -189,105 -175,208zm-571 10c6,18 36,17 72,25 27,5 52,10 79,16 53,11 106,22 159,32l797 161c33,7 55,4 79,-11 16,-10 43,-33 43,-55 -35,-14 -814,-115 -922,-130 -40,-6 -293,-48 -307,-38zm972 -286c1,1 2,1 3,3l26 14c11,4 20,8 31,12 21,9 50,16 62,29 12,30 -63,42 -81,69l9 21c17,-2 161,-74 174,-91 -9,-22 -81,-42 -105,-52 -38,-16 -81,-37 -119,-5zm-293 169c20,9 77,14 103,13 22,-1 59,-27 79,-38l117 -56c34,-15 31,-9 39,-23 -71,-31 -124,-22 -193,8 -37,16 -132,73 -145,96z"/>
   <path class="fil2" d="M3648 1565c2,37 45,160 57,202 61,199 55,166 172,342 18,27 35,52 53,78 14,23 34,65 63,69 60,-34 10,-148 -6,-204 -85,-304 -79,-231 -207,-473 -9,-18 -39,-78 -53,-85 -30,26 -32,56 -79,71zm340 650c21,-52 -41,-118 -83,-174 -20,-27 -37,-51 -57,-77 -11,-14 -46,-68 -63,-69 -8,31 66,126 92,166 18,26 35,51 53,78 8,13 17,25 26,39 29,42 9,35 32,37z"/>
   <path class="fil2" d="M3306 605l-13 0c-43,70 -28,78 6,197 95,326 83,252 242,537 19,-3 23,-8 51,-9 20,-1 41,1 59,-4 2,-22 -49,-170 -59,-202 -69,-216 -55,-178 -177,-359 -35,-53 -70,-111 -109,-160zm199 369c7,-34 -71,-135 -93,-167 -15,-22 -94,-146 -107,-153 -29,32 8,75 22,94l142 193c11,13 18,32 36,33z"/>
   <path class="fil2" d="M2558 1705c19,11 421,90 445,86 17,-19 34,-55 47,-83 46,-92 54,-65 7,-124 -63,-75 -45,-64 -121,-34 -47,19 -366,144 -378,155z"/>
   <path class="fil2" d="M3166 1541c-22,-18 -35,-45 -57,-65 -11,1 -13,2 -23,6 -14,6 -14,6 -21,15 4,15 36,51 48,66 32,41 45,28 -13,151 -12,24 -36,56 -41,73 18,0 74,-28 84,-38 29,-27 28,-64 44,-83 21,4 10,0 20,16 17,26 33,43 71,11 -10,-44 -79,-69 -71,-128 7,-49 22,-142 12,-187 -10,12 -11,23 -16,39l-37 124z"/>
   <path class="fil2" d="M3640 1545c22,2 21,-4 33,-16 11,-12 15,-13 25,-26 16,-21 28,-37 43,-61 45,-71 48,-95 -53,-96 -33,0 -68,-1 -100,-1 -50,2 -31,30 -18,61 15,35 48,120 70,139zm-55 -173c-1,18 16,50 23,64 22,-4 75,-31 103,-42 16,-7 22,-6 28,-19 -19,-10 -130,-13 -154,-3z"/>
  </g>
 </g>
</svg>
