<?xml version="1.0" encoding="UTF-8"?>
<svg viewBox="0 0 40 40" version="1.1" xmlns="http://www.w3.org/2000/svg" xmlns:xlink="http://www.w3.org/1999/xlink">
    <title>icon-set/theme-icon/black/icon-affiliate</title>
    <g id="icon-set-H5最新整理" stroke="none" stroke-width="1" fill="none" fill-rule="evenodd">
        <g id="images/h5/icon-set/theme-icon/black" transform="translate(-133.000000, -307.000000)">
            <g id="icon-set/theme-icon/black/icon-affiliate" transform="translate(133.000000, 307.000000)">
                <circle id="Oval" fill="#4A4A4A" cx="20" cy="20" r="20"></circle>
                <circle id="Oval_00000063594808639249497410000008124828095949897092_" fill="#10BF00" cx="16.6836158" cy="23.9378531" r="5.31073446"></circle>
                <g id="affiliate" transform="translate(7.000000, 7.000000)" stroke="#FFFFFF" stroke-width="1.13168857">
                    <path d="M13.5,3.77229523 C14.5584096,3.77229523 15.4164202,2.92783818 15.4164202,1.88614761 C15.4164202,0.844457051 14.5584096,0 13.5,0 C12.4415904,0 11.5835798,0.844457051 11.5835798,1.88614761 C11.5835798,2.92783818 12.4415904,3.77229523 13.5,3.77229523 Z M13.5,3.39506571 L13.5,6.41290189 M21.3010033,7.46839426 C21.967082,8.29093303 23.1633119,8.4262984 23.9728575,7.77074129 C24.7824032,7.11518418 24.898706,5.91695072 24.2326273,5.09441195 C23.5665485,4.27187318 22.3703186,4.13650781 21.560773,4.79206492 C20.7512274,5.44762203 20.6349245,6.64585549 21.3010033,7.46839426 Z M21.5941657,7.23099603 L19.2488665,9.13018187 M23.2247015,15.7613659 C22.9866112,16.7926485 23.6164145,17.8186298 24.6314066,18.0529592 C25.6463987,18.2872886 26.6622227,17.6412303 26.9003131,16.6099477 C27.1384034,15.578665 26.5086001,14.5526837 25.493608,14.3183543 C24.4786159,14.0840249 23.4627919,14.7300832 23.2247015,15.7613659 Z M23.5922627,15.846224 L20.6517734,15.1673586 M17.8252197,22.4181669 C16.8739274,22.8821431 16.4729383,24.0172632 16.9295853,24.9535284 C17.3862324,25.8897937 18.5275928,26.2726596 19.4788851,25.8086834 C20.4301773,25.3447072 20.8311665,24.2095871 20.3745194,23.2733218 C19.9178723,22.3370566 18.776512,21.9541907 17.8252197,22.4181669 Z M17.9905862,22.7572185 L16.6676539,20.0448054 M9.17478032,22.4181669 C8.22348805,21.9541907 7.08212769,22.3370566 6.6254806,23.2733218 C6.16883351,24.2095871 6.56982266,25.3447072 7.52111493,25.8086834 C8.47240721,26.2726596 9.61376757,25.8897937 10.0704147,24.9535284 C10.5270617,24.0172632 10.1260726,22.8821431 9.17478032,22.4181669 Z M9.00941378,22.7572185 L10.3323461,20.0448054 M3.77529847,15.7613659 C3.53720811,14.7300832 2.52138406,14.0840249 1.50639196,14.3183543 C0.49139986,14.5526837 -0.138403438,15.578665 0.0996869235,16.6099477 C0.337777285,17.6412303 1.35360133,18.2872886 2.36859343,18.0529592 C3.38358553,17.8186298 4.01338883,16.7926485 3.77529847,15.7613659 Z M3.40773732,15.846224 L6.34822655,15.1673586 M5.69899673,7.46839426 C6.36507549,6.64585549 6.24877263,5.44762203 5.43922702,4.79206492 C4.6296814,4.13650781 3.43345149,4.27187318 2.76737273,5.09441195 C2.10129397,5.91695072 2.21759684,7.11518418 3.02714245,7.77074129 C3.83668807,8.4262984 5.03291797,8.29093303 5.69899673,7.46839426 Z M5.40583433,7.23099603 L7.75113354,9.13018187" id="Combined-Shape"></path>
                    <ellipse id="Oval" cx="13.5" cy="13.2030333" rx="7.28239659" ry="7.16736094"></ellipse>
                    <ellipse id="Oval" cx="13.5" cy="12.0713447" rx="2.29970419" ry="2.26337714"></ellipse>
                    <path d="M18.0994084,18.8614761 C18.0994084,16.3614188 16.0401831,14.3347219 13.5,14.3347219 C10.9598169,14.3347219 8.90059162,16.3614188 8.90059162,18.8614761" id="Oval"></path>
                </g>
            </g>
        </g>
    </g>
</svg>