<?xml version="1.0" encoding="UTF-8"?>
<svg width="40px" height="40px" viewBox="0 0 40 40" version="1.1" xmlns="http://www.w3.org/2000/svg" xmlns:xlink="http://www.w3.org/1999/xlink">
    <!-- Generator: Sketch 54.1 (76490) - https://sketchapp.com -->
    <title>icon</title>
    <desc>Created with Sketch.</desc>
    <g id="Page-1" stroke="none" stroke-width="1" fill="none" fill-rule="evenodd">
        <g id="21.黑版-會員選單" transform="translate(-20.000000, -480.000000)">
            <g id="button" transform="translate(10.000000, 470.000000)">
                <g id="icon" transform="translate(10.000000, 10.000000)">
                    <circle id="Oval" fill="#4A4A4A" cx="20" cy="20" r="20"></circle>
                    <path d="M21.0959512,30.2784369 C18.0473413,30.2784369 15.5256517,27.7567472 15.5256517,24.7081373 C15.5256517,21.6595274 18.0473413,19.1378378 21.0959512,19.1378378 C24.1445611,19.1378378 26.6662508,21.6595274 26.6662508,24.7081373 C26.7038879,27.7567472 24.1821983,30.2784369 21.0959512,30.2784369 Z" id="Path" fill="#10BF00" fill-rule="nonzero"></path>
                    <path d="M25.032123,22.0707155 L27.0405407,24.0864499 C27.4100311,24.4522819 27.603922,24.887622 27.603922,25.3412537 C27.603922,25.7912271 27.4136894,26.2302255 27.0515157,26.6070325 C26.8942079,26.7716569 26.7332419,26.9289646 26.5759341,27.0789557 C26.3454599,27.3021133 26.1259607,27.5106375 25.9357281,27.7411117 C25.9320698,27.7484283 25.9247531,27.7520866 25.9210948,27.7594033 C25.3650301,28.3630261 24.655316,28.6666667 23.8102441,28.6666667 C23.7370777,28.6666667 23.6565947,28.6630083 23.5797699,28.65935 C22.3249661,28.578867 21.2018619,28.1069437 20.3604482,27.7081868 C18.1581396,26.6436157 16.2302049,25.1327295 14.6278607,23.219428 C13.3072071,21.6317171 12.4218936,20.1500975 11.8292458,18.5514116 C11.5877967,17.9002306 11.2731811,16.9051676 11.3609808,15.8369381 C11.4195139,15.1747822 11.6865713,14.6040842 12.1548363,14.1358193 L13.3986651,12.8810155 C13.4023234,12.8773571 13.4023234,12.8773571 13.4059817,12.8736988 C13.7718138,12.5225001 14.2034955,12.3359258 14.6498106,12.3359258 C15.0961256,12.3359258 15.5204908,12.5225001 15.8753478,12.8736988 C16.1131386,13.093198 16.3436128,13.3273305 16.563112,13.5541464 C16.6728616,13.6712126 16.7899278,13.7882788 16.9033358,13.9016868 L17.9020571,14.9004082 C18.6703044,15.6686554 18.6703044,16.6637184 17.9020571,17.4319657 C17.7996242,17.5343986 17.6971912,17.6404899 17.5947583,17.7429229 C17.3240426,18.0172969 17.0460102,18.3026458 16.746028,18.5770198 C16.9691855,19.0708931 17.2764844,19.5574496 17.7337744,20.1354642 C18.677621,21.2951517 19.6617091,22.1914401 20.7445719,22.8792043 C20.8506631,22.945054 20.975046,23.0072455 21.1067455,23.0730952 C21.1982036,23.1206534 21.2933199,23.1682116 21.3884362,23.219428 L22.5444653,22.0670572 C22.9139557,21.6975669 23.3456374,21.5036759 23.7956108,21.5036759 C24.2492425,21.5036759 24.677266,21.7012252 25.032123,22.0707155 Z M26.3418016,25.9229266 C26.7149503,25.5351447 26.7149503,25.1510211 26.3381433,24.7778724 L24.3224089,22.762138 C24.3187506,22.7584797 24.3187506,22.7584797 24.3150923,22.7548214 C24.2016843,22.6304385 24.01511,22.487764 23.7882942,22.487764 C23.55782,22.487764 23.3602707,22.6377552 23.2358878,22.762138 L21.9847424,24.0132835 C21.9225509,24.0754749 21.7323183,24.2657076 21.4286777,24.2657076 C21.3079532,24.2657076 21.1908869,24.236441 21.066504,24.1742496 C21.0518707,24.166933 21.0372375,24.155958 21.0226042,24.1486413 C20.9165129,24.0827916 20.79213,24.0206001 20.6604305,23.9547504 C20.5140977,23.881584 20.3604482,23.8047593 20.2104571,23.7096429 C19.0361364,22.967004 17.9715652,21.9975491 16.9618689,20.7537203 L16.9582106,20.750062 C16.4021459,20.0440062 16.0363139,19.4513583 15.7765732,18.8221273 C15.7729149,18.8111523 15.7692565,18.8001774 15.7655982,18.7892024 C15.6997484,18.5806782 15.6412153,18.2733793 15.9558309,17.9587637 C15.9594892,17.9514471 15.9668058,17.9477888 15.9741225,17.9404721 C16.2923963,17.6551232 16.5850619,17.3624576 16.8923608,17.047842 C16.9984521,16.9454091 17.100885,16.8393178 17.2069763,16.7332265 C17.5947583,16.3454446 17.5947583,15.9869292 17.2069763,15.5991473 L16.2082549,14.6004259 C16.0911887,14.4797013 15.9741225,14.3626351 15.8607145,14.2455689 C15.637557,14.0150947 15.4253744,13.7992538 15.2022169,13.5907296 C15.1985586,13.5870712 15.1949003,13.5834129 15.191242,13.5797546 C15.0741757,13.4626884 14.8876014,13.3236722 14.6571272,13.3236722 C14.4705529,13.3236722 14.2803203,13.4151302 14.1010626,13.5834129 L12.8535754,14.8309001 C12.5499348,15.1345406 12.3853104,15.4893977 12.3487272,15.9174211 C12.2938524,16.5868937 12.4182353,17.2966078 12.7584591,18.2075295 C13.3108654,19.7001241 14.1449624,21.0902858 15.3924496,22.5938553 C16.9033358,24.3974071 18.7215208,25.8204936 20.79213,26.8228733 C21.5494023,27.185047 22.5590986,27.6094122 23.6456197,27.6789202 C23.7004945,27.6825786 23.7590276,27.6825786 23.8139024,27.6825786 C24.3846004,27.6825786 24.8199404,27.4960042 25.1894308,27.1009057 C25.4162466,26.8338483 25.6576957,26.5960575 25.8954866,26.3692416 C26.0527943,26.2155922 26.1991271,26.076576 26.3418016,25.9229266 C26.3381433,25.9265849 26.3381433,25.9229266 26.3418016,25.9229266 Z M20.700672,15.4564728 C20.4299563,15.412573 20.254357,15.1528322 20.3019151,14.8857749 C20.3494733,14.6187175 20.6018974,14.4394598 20.8726131,14.4833597 C22.0323005,14.6809089 23.089555,15.229657 23.9273103,16.0674123 C24.7650656,16.9051676 25.3138137,17.9624221 25.5113629,19.1221095 C25.5552628,19.3928252 25.3760051,19.6489076 25.1052894,19.6928075 C25.0760229,19.6964658 25.0504146,19.7001241 25.0211481,19.7001241 C24.7833572,19.7001241 24.574833,19.5318414 24.5345915,19.2903923 C24.3699671,18.3319124 23.9199937,17.4612322 23.2249129,16.7661514 C22.5298321,16.0710706 21.6591519,15.6174389 20.700672,15.4564728 Z M28.6465433,18.9794351 C28.6941014,19.2464924 28.5111854,19.5025748 28.2441281,19.5428164 C28.2148615,19.5464747 28.1892533,19.550133 28.1599867,19.550133 C27.9221959,19.550133 27.7136716,19.3818503 27.6734301,19.1404011 C27.3844228,17.435624 26.5795924,15.8808379 25.3430802,14.6443257 C24.106568,13.4114719 22.551782,12.6029831 20.8470048,12.3139758 C20.5762891,12.2664177 20.3970315,12.0139936 20.4409313,11.7432779 C20.4884895,11.4762205 20.7409135,11.2933045 21.0079709,11.3408627 C22.917614,11.6664532 24.655316,12.5663999 26.038161,13.9492449 C27.421006,15.3320899 28.3209528,17.069792 28.6465433,18.9794351 Z" id="Combined-Shape" fill="#FFFFFF" fill-rule="nonzero"></path>
                </g>
            </g>
        </g>
    </g>
</svg>