<?xml version="1.0" encoding="UTF-8"?>
<svg width="40px" height="40px" viewBox="0 0 40 40" version="1.1" xmlns="http://www.w3.org/2000/svg" xmlns:xlink="http://www.w3.org/1999/xlink">
    <!-- Generator: Sketch 54.1 (76490) - https://sketchapp.com -->
    <title>icon</title>
    <desc>Created with Sketch.</desc>
    <g id="Page-1" stroke="none" stroke-width="1" fill="none" fill-rule="evenodd">
        <g id="21.黑版-會員選單" transform="translate(-203.000000, -480.000000)">
            <g id="button" transform="translate(193.000000, 470.000000)">
                <g id="icon" transform="translate(10.000000, 10.000000)">
                    <circle id="Oval" fill="#4A4A4A" cx="20" cy="20" r="20"></circle>
                    <path d="M21.0959512,30.2784369 C18.0473413,30.2784369 15.5256517,27.7567472 15.5256517,24.7081373 C15.5256517,21.6595274 18.0473413,19.1378378 21.0959512,19.1378378 C24.1445611,19.1378378 26.6662508,21.6595274 26.6662508,24.7081373 C26.7038879,27.7567472 24.1821983,30.2784369 21.0959512,30.2784369 Z" id="Path" fill="#10BF00" fill-rule="nonzero"></path>
                    <path d="M26.3459274,12.6666667 C27.6642588,12.6666667 28.7368625,13.7390581 28.7368625,15.0576018 L28.7368625,22.7740862 C28.7368625,24.0924176 27.6642588,25.1650214 26.3459274,25.1650214 L18.7606392,25.1650214 L13.7283708,28.6666667 L13.7283708,25.1650214 C12.4138607,25.160351 11.3459274,24.0896579 11.3459274,22.7740862 L11.3459274,15.0576018 C11.3459274,13.7390581 12.4185311,12.6666667 13.7368625,12.6666667 L26.3459274,12.6666667 Z M27.7178624,22.7740862 L27.7178624,15.0576018 C27.7178624,14.3009942 27.1024288,13.6856668 26.3459274,13.6856668 L13.7368625,13.6856668 C12.9803611,13.6856668 12.3649275,14.3009942 12.3649275,15.0576018 L12.3649275,22.7740862 C12.3649275,23.5304815 12.9803611,24.1460213 13.7368625,24.1460213 L14.7473709,24.1460213 L14.7473709,26.7162368 L18.4409279,24.1460213 L26.3459274,24.1460213 C27.1024288,24.1460213 27.7178624,23.5304815 27.7178624,22.7740862 Z M16.0005288,16.2672398 L24.0822611,16.2672398 L24.0822611,17.28624 L16.0005288,17.28624 L16.0005288,16.2672398 Z M16.0005288,18.4411067 L24.0822611,18.4411067 L24.0822611,19.4601068 L16.0005288,19.4601068 L16.0005288,18.4411067 Z M16.0005288,20.6149736 L24.0822611,20.6149736 L24.0822611,21.6339737 L16.0005288,21.6339737 L16.0005288,20.6149736 Z" id="Combined-Shape" fill="#FFFFFF" fill-rule="nonzero"></path>
                </g>
            </g>
        </g>
    </g>
</svg>