<?xml version="1.0" encoding="utf-8"?>
<!-- Generator: Adobe Illustrator 25.4.1, SVG Export Plug-In . SVG Version: 6.00 Build 0)  -->
<svg version="1.1" id="Layer_1" xmlns="http://www.w3.org/2000/svg" xmlns:xlink="http://www.w3.org/1999/xlink" x="0px" y="0px"
	 viewBox="0 0 512 512" enable-background="new 0 0 512 512" xml:space="preserve">
<desc>Created with Sketch.</desc>
<g id="Symbols">
	<g id="黑版-nav" transform="translate(-15.000000, -224.000000)">
		<g id="first" transform="translate(-1.000000, 0.000000)">
			<g>
				<g id="main" transform="translate(0.000000, 20.075439)">
					<g id="_x35_" transform="translate(16.000000, 204.000000)">
						<circle id="Oval" fill-rule="evenodd" clip-rule="evenodd" fill="#4B4B4B" cx="254.436" cy="253.795" r="251.415"/>
						<circle id="color" fill-rule="evenodd" clip-rule="evenodd" fill="#EC2426" cx="180.114" cy="219.335" r="65.404"/>
						<path id="Combined-Shape" fill="#FFFFFF" d="M99.847,213.842c3.859-11.717,8.411-22.47,13.316-31.462
							c29.514-52.282,61.558-43.849,99.926-34.152c12.227,2.951,25.298,6.324,38.79,7.589h4.216
							c13.492-1.265,26.563-4.638,38.79-7.589c38.368-10.119,70.412-18.13,99.926,33.73c7.589,13.914,13.914,32.044,18.973,51.439
							c3.373,13.492,6.465,33.871,9.276,61.136c-0.843,25.017-2.811,41.038-5.903,48.066c-4.638,10.962-11.806,16.865-20.238,19.395
							c-8.011,2.108-17.287,0.843-26.984-2.951c-16.443-6.746-35.417-21.081-53.968-38.368
							c-13.07-12.649-37.525-18.973-61.979-18.973s-48.909,6.324-61.979,18.973c-18.552,17.287-37.525,31.622-53.968,38.368
							c-9.697,4.216-18.973,5.06-26.984,2.951c-8.854-2.53-15.6-8.854-20.238-18.973c-4.638-10.962-6.746-26.563-5.903-48.066
							c0.603-13.865,2.499-28.808,5.379-43.596v0.581h15.671c-3.001,14.835-4.818,29.847-5.45,43.437
							c-0.843,19.395,0.843,32.465,4.216,40.476c2.53,5.903,5.903,9.276,10.119,10.541c4.638,1.687,10.541,0.422,17.287-2.108
							c14.335-5.481,31.622-18.973,48.909-34.995c16.443-15.179,44.693-23.189,72.942-23.189c28.249,0,56.498,8.011,72.52,24.033
							c16.865,16.022,34.152,29.092,48.909,34.995c6.746,2.53,12.649,3.373,17.287,2.108c4.216-1.265,7.589-4.638,10.119-10.541
							l4.638-41.319c-0.843-18.552-4.216-38.79-8.854-58.185c-4.638-18.552-10.541-34.995-17.708-47.644
							c-23.189-41.741-50.174-34.573-82.217-26.563c-13.07,3.373-26.563,6.746-41.741,8.011c-0.422,0-0.422,0-0.843,0h-4.638
							c-0.422,0-0.422,0-0.843,0c-14.757-1.265-28.249-4.638-41.319-8.011c-32.044-8.433-59.028-15.179-82.217,26.563
							c-3.955,6.98-7.525,15.243-10.71,24.294H99.847z M103.132,224.81c3.653,0,6.616,2.962,6.616,6.616
							c0,3.654-2.963,6.616-6.616,6.616h-0.084c-3.653,0-6.616-2.962-6.616-6.616c0-3.654,2.963-6.616,6.616-6.616H103.132z
							 M215.196,212.315c4.216,4.216,7.168,10.541,7.168,17.287s-2.53,12.649-7.168,17.287c-3.795,4.216-9.276,6.746-15.179,7.168
							c-0.422,5.903-3.373,10.962-7.168,15.179c-4.216,4.216-10.541,7.168-17.287,7.168s-12.649-2.53-17.287-7.168
							c-4.216-3.795-6.746-9.276-7.168-15.179c-6.324-0.422-11.384-2.951-15.6-7.168c-4.216-4.216-7.168-10.541-7.168-17.287
							s2.53-12.649,7.168-17.287l0.422-0.422c4.216-3.795,9.276-6.324,15.179-6.746c0.422-5.903,3.373-11.384,7.168-15.179
							c4.216-4.216,10.541-7.168,17.287-7.168s12.649,2.53,17.287,7.168l0.422,0.422c3.795,3.795,6.324,9.276,6.746,14.757
							C205.921,205.569,210.98,208.521,215.196,212.315z M204.656,235.926c1.687-1.686,2.53-3.795,2.53-6.324
							s-0.843-4.638-2.53-6.324c-1.687-1.686-3.795-2.53-6.324-2.53h-5.903c-4.638,0-8.011-3.795-8.011-8.011v-5.903
							c0-2.108-0.843-4.216-2.108-5.903c-0.422-0.422-0.422-0.422-0.422-0.422c-1.687-1.687-3.795-2.53-6.324-2.53
							s-4.638,0.843-6.324,2.53c-1.687,1.687-2.53,3.795-2.53,6.324v5.903c0,4.638-3.795,8.011-8.011,8.011h-5.903
							c-2.108,0-4.216,0.843-5.903,2.108c-0.422,0.422-0.422,0.422-0.422,0.422c-1.687,1.687-2.53,3.795-2.53,6.324
							s1.265,4.638,2.53,5.903c1.686,1.687,3.795,2.53,6.324,2.53h5.903c4.638,0,8.011,3.795,8.011,8.011v5.903
							c0,2.53,0.843,4.638,2.53,6.324c1.686,1.687,3.795,2.53,6.324,2.53s4.638-0.843,6.324-2.53c1.686-1.686,2.53-3.795,2.53-6.324
							v-5.481c0-4.638,3.795-8.011,8.011-8.011h5.903C200.861,238.456,202.969,237.613,204.656,235.926z M327.349,214.423
							c-8.15,0-14.757-6.607-14.757-14.757c0-8.15,6.607-14.757,14.757-14.757c8.15,0,14.757,6.607,14.757,14.757
							C342.106,207.816,335.499,214.423,327.349,214.423z M327.349,274.294c-8.15,0-14.757-6.607-14.757-14.757
							c0-8.15,6.607-14.757,14.757-14.757c8.15,0,14.757,6.607,14.757,14.757C342.106,267.688,335.499,274.294,327.349,274.294z
							 M297.414,244.359c-8.15,0-14.757-6.607-14.757-14.757s6.607-14.757,14.757-14.757c8.15,0,14.757,6.607,14.757,14.757
							S305.564,244.359,297.414,244.359z M357.285,244.359c-8.15,0-14.757-6.607-14.757-14.757s6.607-14.757,14.757-14.757
							s14.757,6.607,14.757,14.757S365.435,244.359,357.285,244.359z"/>
					</g>
				</g>
			</g>
		</g>
	</g>
</g>
</svg>
