<svg xmlns="http://www.w3.org/2000/svg" viewBox="0 0 40 41"><defs><style>.cls-1{fill:#4a4a4a;}.cls-2{fill:#ed1f23;}.cls-3{font-size:6.81px;}.cls-3,.cls-4,.cls-7,.cls-8{fill:#fff;}.cls-3,.cls-4,.cls-7{font-family:Arial-Black, Arial Black;font-weight:800;}.cls-4{font-size:4.61px;}.cls-5,.cls-6{fill:none;stroke:#fff;stroke-miterlimit:10;}.cls-6{stroke-width:0.5px;}.cls-7{font-size:5.43px;}</style></defs><g id="圖層_3" data-name="圖層 3"><circle id="Oval" class="cls-1" cx="20" cy="20.1" r="20"/><circle id="color" class="cls-2" cx="15.8" cy="28.1" r="5.2"/><text class="cls-3" transform="translate(17.66 26.2)">38</text><text class="cls-4" transform="matrix(0.58, -0.82, 0.82, 0.58, 27.71, 15.25)">7</text><path class="cls-5" d="M26,30.87a7.67,7.67,0,1,1,2.24-1.95"/><path class="cls-5" d="M29.48,17.63a4.47,4.47,0,1,0-7.2-3.53,2.85,2.85,0,0,0,0,.29A9.78,9.78,0,0,1,29.48,17.63Z"/><path class="cls-5" d="M19.93,14.66a6.25,6.25,0,1,0-7.55,9.39A9.82,9.82,0,0,1,19.93,14.66Z"/><line class="cls-6" x1="18.76" y1="27.59" x2="25.77" y2="27.59"/><text class="cls-7" transform="matrix(0.86, 0.52, -0.52, 0.86, 10.12, 17)">6</text><line class="cls-6" x1="28.37" y1="16.19" x2="29.88" y2="14.01"/><line class="cls-6" x1="10.43" y1="19.22" x2="12.8" y2="20.58"/><circle class="cls-8" cx="27.08" cy="30" r="0.62"/></g></svg>