<?xml version="1.0" encoding="UTF-8"?>
<svg width="40px" height="41px" viewBox="0 0 40 41" version="1.1" xmlns="http://www.w3.org/2000/svg" xmlns:xlink="http://www.w3.org/1999/xlink">
    <!-- Generator: Sketch 55 (78076) - https://sketchapp.com -->
    <title>1</title>
    <desc>Created with Sketch.</desc>
    <g id="Symbols" stroke="none" stroke-width="1" fill="none" fill-rule="evenodd">
        <g id="黑版-nav" transform="translate(-134.000000, -20.000000)">
            <g transform="translate(-1.000000, 0.000000)" id="first">
                <g>
                    <g id="main" transform="translate(0.000000, 20.075439)">
                        <g id="1" transform="translate(135.000000, 0.000000)">
                            <circle id="Oval" fill="#4A4A4A" cx="20" cy="20" r="20"></circle>
                            <g id="icon1" transform="translate(9.333333, 7.899414)" fill-rule="nonzero">
                                <path d="M18.1122359,25.5132892 L10.3702723,25.5132892 C7.9948971,25.5132892 6.10339462,23.5777983 6.10339462,21.2464116 L6.10339462,19.9707471 C6.10339462,17.5953719 8.03888553,15.7038694 10.3702723,15.7038694 L18.1122359,15.7038694 C20.4876111,15.7038694 22.3791136,17.6393603 22.3791136,19.9707471 L22.3791136,21.2464116 C22.3791136,23.5777983 20.4436227,25.5132892 18.1122359,25.5132892 Z" id="Path" fill="#ED1F23"></path>
                                <path d="M20.3556459,11.0850843 L1.35264421,11.0850843 C0.780794628,11.0850843 0.34091033,10.7771653 0.120968182,10.2493041 C-0.0989739669,9.72144297 0.0329913223,9.19358181 0.42888719,8.79768595 L3.85998471,5.76248429 C4.03593843,5.58653058 4.34385744,5.630519 4.51981115,5.80647272 C4.69576487,5.98242644 4.65177644,6.29034545 4.47582272,6.46629917 L1.04472521,9.50150082 C0.868771487,9.67745454 0.956748347,9.89739669 0.956748347,9.94138512 C0.956748347,9.98537355 1.08871364,10.2053157 1.35264421,10.2053157 L20.3996343,10.2053157 C20.6635649,10.2053157 20.7955302,9.98537355 20.7955302,9.94138512 C20.8395186,9.89739669 20.883507,9.67745454 20.7075533,9.45751239 L11.2060525,1.09971074 C10.9861103,0.879768595 10.7221797,0.923757024 10.546226,1.09971074 L7.59900124,3.6950281 C7.42304752,3.87098182 7.11512851,3.82699339 6.93917479,3.65103967 C6.76322107,3.47508595 6.8072095,3.16716694 6.98316322,2.99121322 L9.88639958,0.395895868 C10.1503302,0.131965289 10.5022376,7.10542736e-15 10.854145,7.10542736e-15 C11.2060525,7.10542736e-15 11.5579599,0.131965289 11.8218905,0.395895868 L21.3233913,8.75369752 C21.7192872,9.14959338 21.8512525,9.72144297 21.6313103,10.2493041 C21.4113682,10.7331769 20.9274954,11.0850843 20.3556459,11.0850843 L20.3556459,11.0850843 Z" id="Path" stroke="#FFFFFF" stroke-width="0.2" fill="#FFFFFF"></path>
                                <path d="M5.09166074,5.67450743 C4.95969545,5.67450743 4.82773016,5.630519 4.7397533,5.54254215 C4.56379958,5.36658843 4.60778801,5.05866942 4.78374173,4.8827157 L5.97142934,3.82699339 C6.14738305,3.65103967 6.45530206,3.6950281 6.63125578,3.87098182 C6.8072095,4.04693553 6.76322107,4.35485454 6.58726735,4.53080826 L5.39957975,5.58653058 C5.31160289,5.630519 5.22362603,5.67450743 5.09166074,5.67450743 L5.09166074,5.67450743 Z M19.651831,23.3138678 L13.4934508,23.3138678 C13.2295202,23.3138678 13.0535665,23.0939256 13.0535665,22.8739835 L13.0535665,18.0352562 L8.69871198,18.0352562 L8.69871198,22.8739835 C8.69871198,23.137914 8.47876983,23.3138678 8.25882768,23.3138678 L2.10044752,23.3138678 C1.83651694,23.3138678 1.66056322,23.0939256 1.66056322,22.8739835 L1.66056322,11.876876 C1.66056322,11.6129454 1.88050537,11.4369917 2.10044752,11.4369917 C2.32038967,11.4369917 2.54033182,11.6569339 2.54033182,11.876876 L2.54033182,22.4340992 L7.77495495,22.4340992 L7.77495495,17.5953719 C7.77495495,17.3314413 7.9948971,17.1554876 8.21483925,17.1554876 L13.4934508,17.1554876 C13.7573814,17.1554876 13.9333351,17.3754297 13.9333351,17.5953719 L13.9333351,22.4340992 L19.1679583,22.4340992 L19.1679583,11.876876 C19.1679583,11.6129454 19.3879004,11.4369917 19.6078426,11.4369917 C19.8277847,11.4369917 20.0477268,11.6569339 20.0477268,11.876876 L20.0477268,22.8739835 C20.0917153,23.137914 19.9157616,23.3138678 19.651831,23.3138678 Z" id="Shape" stroke="#FFFFFF" stroke-width="0.2" fill="#FFFFFF"></path>
                                <path d="M13.5814277,14.9560661 L8.30281611,14.9560661 C8.03888553,14.9560661 7.86293181,14.736124 7.86293181,14.5161818 C7.86293181,14.2962397 8.08287396,14.0762975 8.30281611,14.0762975 L13.5814277,14.0762975 C13.8453583,14.0762975 14.021312,14.2962397 14.021312,14.5161818 C14.021312,14.736124 13.8453583,14.9560661 13.5814277,14.9560661 Z M10.3262839,6.02641487 C10.1943186,6.02641487 10.0183649,5.93843801 9.97437644,5.80647272 C9.84241115,5.58653058 9.93038801,5.3226 10.1063417,5.23462314 L11.6019483,4.35485454 L10.1063417,3.29913223 C9.93038801,3.16716694 9.88639958,2.90323636 10.0183649,2.68329421 C10.1503302,2.50734049 10.4142607,2.46335206 10.6342029,2.59531735 L12.7016591,4.04693553 C12.8336244,4.13491239 12.8776128,4.26687768 12.8776128,4.39884297 C12.8776128,4.53080826 12.7896359,4.66277355 12.6576707,4.75075041 L10.5902145,5.98242644 C10.5022376,6.02641487 10.4142607,6.02641487 10.3262839,6.02641487 L10.3262839,6.02641487 Z" id="Shape" stroke="#FFFFFF" stroke-width="0.2" fill="#FFFFFF"></path>
                            </g>
                        </g>
                    </g>
                </g>
            </g>
        </g>
    </g>
</svg>