<?xml version="1.0" encoding="UTF-8"?>
<svg width="40px" height="41px" viewBox="0 0 40 41" version="1.1" xmlns="http://www.w3.org/2000/svg" xmlns:xlink="http://www.w3.org/1999/xlink">
    <!-- Generator: Sketch 54.1 (76490) - https://sketchapp.com -->
    <title>8</title>
    <desc>Created with Sketch.</desc>
    <g id="Symbols" stroke="none" stroke-width="1" fill="none" fill-rule="evenodd">
        <g id="黑版-nav" transform="translate(-15.000000, -381.000000)">
            <g transform="translate(-1.000000, 0.000000)" id="first">
                <g>
                    <g id="main" transform="translate(0.000000, 20.075439)">
                        <g id="8" transform="translate(16.000000, 361.500000)">
                            <circle id="Oval" fill="#4A4A4A" cx="20" cy="20" r="20"></circle>
                            <path d="M25.5045907,28.7089798 C22.4559808,28.7089798 19.9342912,26.1872902 19.9342912,23.1386803 C19.9342912,20.0900704 22.4559808,17.5683807 25.5045907,17.5683807 C28.5532006,17.5683807 31.0748903,20.0900704 31.0748903,23.1386803 C31.1125274,26.1872902 28.5908378,28.7089798 25.5045907,28.7089798 Z" id="Path" fill="#ED1F23" fill-rule="nonzero"></path>
                            <path d="M26.6713427,27.5422279 L12.0681249,27.5422279 C10.2239041,27.5422279 8.6807806,26.0367415 8.6807806,24.1548836 L8.6807806,21.7461054 C8.6807806,21.4450081 8.90660356,21.2191852 9.20770083,21.2191852 C10.186267,21.2191852 10.9390101,20.4288048 10.9390101,19.4878758 C10.9390101,18.5093097 10.1486298,17.7565665 9.20770083,17.7565665 C8.90660356,17.7565665 8.6807806,17.5307436 8.6807806,17.2296463 L8.6807806,14.0681249 C8.6807806,12.2239041 10.186267,10.6807806 12.0681249,10.6807806 L21.1386803,10.6807806 C21.4397775,10.6807806 21.6656005,10.9066036 21.6656005,11.2077008 C21.6656005,11.5087981 21.4397775,11.7346211 21.1386803,11.7346211 L12.0681249,11.7346211 C10.7884615,11.7346211 9.73462106,12.7884615 9.73462106,14.0681249 L9.73462106,16.7780004 C11.0142845,17.0038233 11.9928506,18.1329381 11.9928506,19.4878758 C11.9928506,20.8428136 11.0142845,21.9719283 9.73462106,22.1977513 L9.73462106,24.1548836 C9.73462106,25.434547 10.7884615,26.4883874 12.0681249,26.4883874 L26.6713427,26.4883874 C27.9510061,26.4883874 29.0048465,25.434547 29.0048465,24.1548836 L29.0048465,22.1977513 C27.7251831,21.9719283 26.746617,20.8428136 26.746617,19.4878758 C26.746617,18.1329381 27.7251831,17.0038233 29.0048465,16.7780004 L29.0048465,14.0681249 C29.0048465,12.7884615 27.9510061,11.7346211 26.6713427,11.7346211 L25.9938738,11.7346211 C25.6927765,11.7346211 25.4669536,11.5087981 25.4669536,11.2077008 C25.4669536,10.9066036 25.6927765,10.6807806 25.9938738,10.6807806 L26.6713427,10.6807806 C28.5155635,10.6807806 30.058687,12.186267 30.058687,14.0681249 L30.058687,17.2296463 C30.058687,17.5307436 29.832864,17.7565665 29.5317668,17.7565665 C28.5532006,17.7565665 27.8004574,18.5469469 27.8004574,19.4878758 C27.8004574,20.466442 28.5908378,21.2191852 29.5317668,21.2191852 C29.832864,21.2191852 30.058687,21.4450081 30.058687,21.7461054 L30.058687,24.1548836 C30.058687,25.9991044 28.5155635,27.5422279 26.6713427,27.5422279 Z M24.149653,11.7346211 L22.7570781,11.7346211 C22.4559808,11.7346211 22.2301579,11.5087981 22.2301579,11.2077008 C22.2301579,10.9066036 22.4559808,10.6807806 22.7570781,10.6807806 L24.149653,10.6807806 C24.4507503,10.6807806 24.6765732,10.9066036 24.6765732,11.2077008 C24.6765732,11.5087981 24.4131131,11.7346211 24.149653,11.7346211 Z M15.9823895,23.778512 C15.6812922,23.778512 15.4554692,23.552689 15.4554692,23.2515917 L15.4554692,14.2186736 C15.4554692,13.9175763 15.6812922,13.6917533 15.9823895,13.6917533 C16.2834867,13.6917533 16.5093097,13.9175763 16.5093097,14.2186736 L16.5093097,23.2515917 C16.5093097,23.552689 16.2834867,23.778512 15.9823895,23.778512 Z" id="Combined-Shape" fill="#FFFFFF" fill-rule="nonzero"></path>
                        </g>
                    </g>
                </g>
            </g>
        </g>
    </g>
</svg>