<?xml version="1.0" encoding="utf-8"?>
<!-- Generator: Adobe Illustrator 26.5.0, SVG Export Plug-In . SVG Version: 6.00 Build 0)  -->
<svg version="1.1" id="圖層_1" xmlns="http://www.w3.org/2000/svg" xmlns:xlink="http://www.w3.org/1999/xlink" x="0px" y="0px"
	 viewBox="0 0 36 36" style="enable-background:new 0 0 36 36;" xml:space="preserve">
<style type="text/css">
	.st0{fill-rule:evenodd;clip-rule:evenodd;fill:#4A4A4A;}
	.st1{fill-rule:evenodd;clip-rule:evenodd;fill:#ED1F23;}
	.st2{fill:#FFFFFF;}
</style>
<g>
	<g id="H5新增VIP" transform="translate(-305.000000, -356.000000)">
		<g id="VIP-icon" transform="translate(305.208333, 356.450704)">
			<ellipse id="Oval" class="st0" cx="17.7" cy="17.7" rx="17.7" ry="17.7"/>
			<ellipse id="Oval_00000016763523086698308320000015527655084513904283_" class="st1" cx="24.5" cy="20.3" rx="4.7" ry="4.7"/>
			<g id="vip" transform="translate(6.250000, 7.295775)">
				<path id="Shape" class="st2" d="M10.9,0c0.2,0,0.4,0.1,0.5,0.3l0,0l3.8,5.3l6.2,2c0.2,0.1,0.3,0.2,0.4,0.4s0,0.4-0.1,0.6l0,0
					l-3.9,5.2l0.1,6.5c0,0.2-0.1,0.4-0.3,0.5c-0.1,0.1-0.2,0.1-0.4,0.1c-0.1,0-0.1,0-0.2,0l0,0l-6.2-2.1l-6.2,2.1
					c-0.2,0.1-0.4,0-0.6-0.1c-0.2-0.1-0.3-0.3-0.3-0.5l0,0L4,13.7L0.1,8.5C0,8.3,0,8.1,0,7.9c0.1-0.2,0.2-0.3,0.4-0.4l0,0l6.2-2
					l3.8-5.3C10.5,0.1,10.7,0,10.9,0z M10.9,1.7L7.6,6.5C7.5,6.6,7.4,6.7,7.2,6.7l0,0L1.7,8.4l3.5,4.7c0.1,0.1,0.1,0.2,0.1,0.4l0,0
					l-0.1,5.8l5.5-1.8c0.1,0,0.1,0,0.2,0c0.1,0,0.1,0,0.2,0l0,0l5.5,1.8l-0.1-5.8c0-0.1,0-0.3,0.1-0.4l0,0l3.5-4.7l-5.6-1.8
					c-0.1,0-0.2-0.1-0.3-0.2l0,0L10.9,1.7z M10.9,9.2c0.4,0,0.7,0.3,0.7,0.6l0,0v3.3c0,0.3-0.3,0.6-0.7,0.6s-0.7-0.3-0.7-0.6l0,0
					V9.8C10.2,9.5,10.5,9.2,10.9,9.2z M14.7,9.2c0.8,0,1.5,0.7,1.5,1.5s-0.7,1.5-1.5,1.5l0,0h-1.1v1c0,0.3-0.3,0.6-0.6,0.6
					c-0.4,0-0.6-0.3-0.6-0.6l0,0V9.8c0-0.3,0.3-0.6,0.6-0.6l0,0H14.7z M6.1,9.2c0.3-0.1,0.7,0,0.8,0.4l0,0l0.7,1.8l0.7-1.8
					c0.1-0.3,0.5-0.5,0.8-0.4C9.4,9.3,9.6,9.7,9.5,10l0,0l-1.3,3.3c-0.1,0.2-0.3,0.4-0.6,0.4c-0.3,0-0.5-0.2-0.6-0.4l0,0L5.7,10
					C5.6,9.7,5.7,9.3,6.1,9.2z M14.7,10.4h-1.1v0.4h1.1c0.1,0,0.2-0.1,0.2-0.2S14.8,10.4,14.7,10.4L14.7,10.4z"/>
			</g>
		</g>
	</g>
</g>
</svg>
