<?xml version="1.0" encoding="utf-8"?>
<!-- Generator: Adobe Illustrator 25.4.1, SVG Export Plug-In . SVG Version: 6.00 Build 0)  -->
<svg version="1.1" id="Layer_1" xmlns="http://www.w3.org/2000/svg" xmlns:xlink="http://www.w3.org/1999/xlink" x="0px" y="0px"
	 viewBox="0 0 512 512" enable-background="new 0 0 512 512" xml:space="preserve">
<g>
	<g id="圖層_2_00000135675540814325348500000003932407566917258150_">
		<circle id="Oval" fill-rule="evenodd" clip-rule="evenodd" fill="#4B4B4B" cx="254.795" cy="256.754" r="250.629"/>
		<circle id="color" fill-rule="evenodd" clip-rule="evenodd" fill="#EC2426" cx="147.024" cy="280.564" r="65.163"/>
	</g>
	<g id="圖層_5">
		<polyline fill="none" stroke="#FFFFFF" stroke-width="7" stroke-miterlimit="10" points="332.49,130.187 316.199,121.415 
			193.391,121.415 114.443,161.515 114.443,217.907 193.391,258.007 316.199,258.007 395.147,217.907 395.147,161.515 
			375.096,151.49 		"/>
		<polyline fill="none" stroke="#FFFFFF" stroke-width="7" stroke-miterlimit="10" points="114.443,202.869 114.443,258.007 
			193.391,298.108 316.199,298.108 395.147,258.007 395.147,202.869 		"/>
		<path fill="none" stroke="#FFFFFF" stroke-width="7" stroke-linecap="round" stroke-linejoin="round" stroke-miterlimit="10" d="
			M254.795,392.094"/>
		<g>
			<path fill="none" stroke="#FFFFFF" stroke-width="7" stroke-linecap="round" stroke-linejoin="round" stroke-miterlimit="10" d="
				M239.757,345.727c0,0,15.038,3.759,31.329,0"/>
		</g>
		<g>
			<path fill="none" stroke="#FFFFFF" stroke-width="7" stroke-linecap="round" stroke-linejoin="round" stroke-miterlimit="10" d="
				M239.757,377.056c0,0,15.038,7.519,31.329,0"/>
		</g>
		
			<path id="spades_1_" fill="none" stroke="#FFFFFF" stroke-width="7" stroke-linecap="round" stroke-linejoin="round" stroke-miterlimit="10" d="
			M277.351,159.009c-11.278-6.266-21.303-13.785-22.557-17.544c-1.253,3.759-10.025,11.278-22.557,17.544
			s-32.582,11.278-32.582,26.316c0,26.316,37.594,32.582,52.632,11.278c0,6.266-2.506,37.594-11.278,38.847
			c-1.253,0-1.253,1.253-1.253,1.253c6.266,2.506,25.063,1.253,27.569,1.253c3.759,0,1.253-1.253,1.253-1.253
			c-6.266-2.506-12.531-28.822-13.785-38.847c15.038,18.797,52.632,13.785,52.632-11.278
			C309.933,170.287,289.883,165.275,277.351,159.009z"/>
		<g>
			<g>
				<g>
					
						<path fill="none" stroke="#FFFFFF" stroke-width="7" stroke-linecap="round" stroke-linejoin="round" stroke-miterlimit="10" d="
						M271.086,334.449c0,0,15.038,0,15.038-10.025l22.557,11.278c0,0-3.759,31.329,25.063,35.088v20.05l-16.291,11.278"/>
					
						<polyline fill="none" stroke="#FFFFFF" stroke-width="7" stroke-linecap="round" stroke-linejoin="round" stroke-miterlimit="10" points="
						271.086,334.449 271.086,372.043 317.452,402.119 					"/>
				</g>
				
					<line fill="none" stroke="#FFFFFF" stroke-width="7" stroke-linecap="round" stroke-linejoin="round" stroke-miterlimit="10" x1="284.87" y1="324.424" x2="284.87" y2="298.108"/>
			</g>
			<g>
				<g>
					
						<path fill="none" stroke="#FFFFFF" stroke-width="7" stroke-linecap="round" stroke-linejoin="round" stroke-miterlimit="10" d="
						M238.504,334.449c0,0-15.038,0-15.038-10.025l-22.557,11.278c0,0,3.759,31.329-25.063,35.088v20.05l15.038,11.278"/>
					
						<polyline fill="none" stroke="#FFFFFF" stroke-width="7" stroke-linecap="round" stroke-linejoin="round" stroke-miterlimit="10" points="
						238.504,334.449 238.504,372.043 192.138,402.119 					"/>
				</g>
				
					<line fill="none" stroke="#FFFFFF" stroke-width="7" stroke-linecap="round" stroke-linejoin="round" stroke-miterlimit="10" x1="224.719" y1="324.424" x2="224.719" y2="298.108"/>
			</g>
		</g>
		
			<line fill="none" stroke="#FFFFFF" stroke-width="7" stroke-linecap="round" stroke-linejoin="round" stroke-miterlimit="10" x1="355.046" y1="141.465" x2="355.046" y2="141.465"/>
	</g>
</g>
</svg>
