<?xml version="1.0" encoding="utf-8"?>
<!-- Generator: Adobe Illustrator 25.4.1, SVG Export Plug-In . SVG Version: 6.00 Build 0)  -->
<svg version="1.1" id="Layer_1" xmlns="http://www.w3.org/2000/svg" xmlns:xlink="http://www.w3.org/1999/xlink" x="0px" y="0px"
	 viewBox="0 0 512 512" enable-background="new 0 0 512 512" xml:space="preserve">
<circle display="none" fill="#4B4B4B" cx="255.411" cy="256" r="253.681"/>
<desc>Created with Sketch.</desc>
<g id="Symbols" display="none">
	<g id="黑版-nav" transform="translate(-15.000000, -20.000000)" display="inline">
		<g id="first" transform="translate(-1.000000, 0.000000)">
			<g>
				<g id="main" transform="translate(0.000000, 20.075439)">
					<g id="_x31_" transform="translate(16.000000, 0.000000)">
						<circle id="Oval" fill-rule="evenodd" clip-rule="evenodd" fill="#4B4B4B" cx="255.491" cy="255.829" r="253.658"/>
						<circle id="color" fill-rule="evenodd" clip-rule="evenodd" fill="#EC2426" cx="331.589" cy="179.738" r="69.972"/>
						<path id="Combined-Shape" fill="#FFFFFF" d="M409.036,280.986c-0.219,0.504-0.502,0.974-0.836,1.408
							c-22.865,38.173-64.633,63.784-112.274,63.784c-7.608,0-15.064-0.661-22.322-1.915l-52.96,52.962
							c-1.306,1.306-3.018,1.959-4.729,1.959s-3.425-0.653-4.731-1.959c-2.61-2.613-2.61-6.848,0-9.46l47.115-47.113
							c-31.628-9.52-58.245-30.714-74.825-58.556c-0.3-0.4-0.559-0.831-0.763-1.291c-2.234-3.848-4.277-7.825-6.116-11.908
							l-66.041,66.039c-1.306,1.306-3.018,1.959-4.729,1.959c-1.711,0-3.423-0.653-4.729-1.959c-2.613-2.613-2.613-6.848,0-9.46
							l70.255-70.255c-2.584-8.065-4.405-16.467-5.377-25.125c-0.008-0.057-0.016-0.115-0.021-0.175
							c-0.53-4.771-0.813-9.617-0.813-14.526c0-32.749,12.102-62.723,32.064-85.693c0.321-0.47,0.703-0.896,1.131-1.275
							c13.094-14.675,29.439-26.39,47.894-33.998c0.379-0.199,0.771-0.361,1.178-0.483c15.009-6.017,31.382-9.335,48.516-9.335
							c15.362,0,30.108,2.67,43.811,7.556c0.368,0.094,0.729,0.225,1.076,0.381c19.331,7.085,36.532,18.615,50.373,33.337
							c0.455,0.374,0.854,0.807,1.194,1.283c21.308,23.276,34.329,54.258,34.329,88.227c0,5.144-0.308,10.218-0.888,15.208
							c-0.008,0.057-0.013,0.115-0.021,0.172C423.669,248.895,417.82,265.893,409.036,280.986z M351.167,281.249l47.395-8.901
							c6.793-12.19,11.474-25.708,13.552-40.056l-34.191-35.111l-7.825,1.756l-30.074,6.754l-12.653,38.941L351.167,281.249z
							 M264.484,244.631l-4.222-12.99l-8.431-25.951l-37.937-8.52l-34.235,34.533c2.022,14.474,6.688,28.111,13.499,40.404
							l47.541,9.123L264.484,244.631z M198.576,149.831c-12.386,18.333-19.725,40.336-20.036,64.003l26.068-26.296L198.576,149.831z
							 M276.69,238.912h38.227l11.814-36.357l-30.928-22.471l-30.928,22.468L276.69,238.912z M413.321,214.359
							c-0.217-24.827-8.17-47.839-21.572-66.736l-4.632,39.826L413.321,214.359z M379.932,133.46
							c-11.472-11.757-25.374-21.125-40.895-27.275l-36.299,26.016v36.208l33.587,24.402l23.297-5.23l14.39-3.229L379.932,133.46z
							 M323.082,101.163c-8.718-2.074-17.81-3.177-27.155-3.177c-10.68,0-21.029,1.442-30.87,4.128l30.588,18.714L323.082,101.163z
							 M248.824,107.862c-14.847,6.529-28.091,16.041-38.972,27.777l7.786,48.665l37.893,8.507l9.894-7.19l23.691-17.212v-35.894
							L248.824,107.862z M203.501,287.713c13.891,17.713,32.754,31.349,54.467,38.787l-18.38-31.858L203.501,287.713z
							 M276.073,331.113c6.456,1.105,13.086,1.688,19.853,1.685c6.767,0,13.4-0.583,19.858-1.688l24.373-42.253l-23.764-36.568
							h-40.934l-23.764,36.568L276.073,331.113z M333.887,326.5c21.637-7.412,40.443-20.977,54.318-38.598l-35.949,6.754
							L333.887,326.5z M176.385,325.475c2.613-2.61,6.848-2.61,9.46,0c2.61,2.613,2.61,6.848,0,9.46l-90.155,90.153
							c-1.306,1.306-3.018,1.959-4.729,1.959c-1.711,0-3.423-0.653-4.729-1.957c-2.613-2.613-2.613-6.848,0-9.46L176.385,325.475z
							 M195.396,406.322c1.761,0,3.485,0.716,4.729,1.959c1.246,1.244,1.959,2.968,1.959,4.734c0,1.758-0.716,3.48-1.959,4.724
							c-1.244,1.251-2.968,1.965-4.729,1.965c-1.758,0-3.483-0.713-4.726-1.965c-1.246-1.246-1.962-2.965-1.962-4.724
							c0-1.766,0.718-3.49,1.962-4.734S193.638,406.322,195.396,406.322z"/>
					</g>
				</g>
			</g>
		</g>
	</g>
</g>
<desc>Created with Sketch.</desc>
<g id="Symbols_00000110429279104627201690000006824209590880382348_">
	<g id="黑版-nav_00000174599902191300996630000012711821689993168539_" transform="translate(-15.000000, -122.000000)">
		<g id="first_00000129202077010586873590000014140719396243347374_" transform="translate(-1.000000, 0.000000)">
			<g>
				<g id="main_00000163760529182475701320000010203740676290290107_" transform="translate(0.000000, 20.075439)">
					<g id="_x33_" transform="translate(16.000000, 102.000000)">
						
							<circle id="Oval_00000053537070999008077220000011145973929328357797_" fill-rule="evenodd" clip-rule="evenodd" fill="#4B4B4B" cx="256.035" cy="255.889" r="254.035"/>
						
							<circle id="color_00000000936870875683480870000016373567544422431119_" fill-rule="evenodd" clip-rule="evenodd" fill="#EC2426" cx="336.056" cy="226.675" r="66.049"/>
						<path id="Combined-Shape_00000023983957394040540460000003221984387090668459_" fill="#FFFFFF" d="M419.888,156.816
							c3.811,0,6.351,2.54,6.351,6.351v40.646c0,1.27,0,2.54-1.27,3.811c-25.404,35.565-40.646,85.102-40.646,129.558
							c0,3.811-2.54,6.351-6.351,6.351h-52.077c-3.811,0-6.351-2.54-6.351-6.351c0-24.133,6.351-49.537,17.782-76.211
							c7.621-16.512,17.782-34.295,27.944-48.267h-26.674c-26.674,46.997-43.186,105.425-43.186,160.042
							c0,3.811-2.54,6.351-6.351,6.351h-72.4c-3.811,0-6.351-2.54-6.351-6.351c0-31.754,8.891-68.589,25.404-105.425
							c11.432-25.404,25.404-49.537,41.916-69.86h-46.997v7.621c0,1.27-1.27,3.811-1.27,5.081l0,0
							c-25.404,35.565-39.375,82.561-39.375,127.018c0,3.811-2.54,6.351-6.351,6.351h-54.618c-3.811,0-6.351-2.54-6.351-6.351
							c0-24.133,6.351-49.537,17.782-76.211c7.621-16.512,17.782-34.295,27.944-48.267h-38.105v5.081
							c0,3.811-2.54,6.351-6.351,6.351H90.912c-3.811,0-6.351-2.54-6.351-6.351v-53.347c0-3.811,2.54-6.351,6.351-6.351h67.319
							v-25.404c0-3.811,2.54-6.351,6.351-6.351h71.13c3.811,0,6.351,2.54,6.351,6.351s-2.54,6.351-6.351,6.351h-64.779v60.968
							h44.456v-8.891c0-3.811,2.54-6.351,6.351-6.351h67.319c2.54,0,5.081,1.27,6.351,3.811s1.27,5.081-1.27,7.621
							c-34.295,40.646-69.86,109.235-72.4,171.474h58.428c1.27-62.239,22.863-129.558,57.158-180.365v-46.996h-63.509
							c-3.811,0-6.351-2.54-6.351-6.351s2.54-6.351,6.351-6.351h71.13c3.811,0,6.351,2.54,6.351,6.351v25.404h68.589V156.816z
							 M158.232,198.732v-29.214H98.533v40.646h19.053v-5.081c0-3.811,2.54-6.351,6.351-6.351H158.232z M174.744,330.83
							c1.27-40.646,13.972-83.832,35.565-118.126h-25.404c-24.133,29.214-46.996,74.94-49.537,118.126
							C135.368,330.83,174.744,330.83,174.744,330.83z M413.537,201.272v-31.754h-59.698V187.3c0,1.27,0,2.54-1.27,3.811
							c-1.27,2.54-3.811,5.081-5.081,7.621h33.025c2.54,0,5.081,1.27,6.351,3.811c1.27,2.54,1.27,5.081-1.27,7.621
							c-24.133,29.214-49.537,76.211-52.077,120.667h39.375C372.891,286.374,389.404,236.837,413.537,201.272z M256.035,125.061
							c3.811,0,6.351,2.54,6.351,6.351c0,3.811-2.54,6.351-6.351,6.351l0,0c-3.811,0-6.351-2.54-6.351-6.351
							C248.414,127.602,252.225,125.061,256.035,125.061L256.035,125.061z"/>
					</g>
				</g>
			</g>
		</g>
	</g>
</g>
</svg>
