<?xml version="1.0" encoding="utf-8"?>
<!-- Generator: Adobe Illustrator 25.4.1, SVG Export Plug-In . SVG Version: 6.00 Build 0)  -->
<svg version="1.1" id="圖層_1" xmlns="http://www.w3.org/2000/svg" xmlns:xlink="http://www.w3.org/1999/xlink" x="0px" y="0px"
	 viewBox="0 0 40 41" style="enable-background:new 0 0 40 41;" xml:space="preserve">
<style type="text/css">
	.st0{fill-rule:evenodd;clip-rule:evenodd;fill:#4A4A4A;}
	.st1{fill-rule:evenodd;clip-rule:evenodd;fill:#ED1F23;}
	.st2{fill:#FFFFFF;}
</style>
<desc>Created with Sketch.</desc>
<g id="Symbols">
	<g id="黑版-nav" transform="translate(-15.000000, -275.000000)">
		<g id="first" transform="translate(-1.000000, 0.000000)">
			<g>
				<g id="main" transform="translate(0.000000, 20.075439)">
					<g id="_x36_" transform="translate(16.000000, 255.000000)">
						<circle id="Oval" class="st0" cx="20" cy="20" r="20"/>
						<circle id="color" class="st1" cx="19.4" cy="15.9" r="5.2"/>
						<path id="Shape" class="st2" d="M36.7,19.5c0-0.1-0.1-0.3-0.2-0.3c-0.3-0.2-6.7-3.7-11.4-3.9c-0.2-0.4-0.5-1.3-1.1-2.1
							c-1.1-1.6-2.6-2.5-4.2-2.5c-0.3,0-0.5,0.2-0.5,0.5v4.6c-1.4,0.3-2.9,0.7-4.3,1l-2.6-2.2c-0.2-0.1-0.4-0.2-0.6-0.1
							c-0.2,0.1-0.3,0.3-0.2,0.5l0.4,2.5c-0.4,0.1-0.8,0.2-1,0.2c-0.5-0.1-3.4-1.4-5.9-2.6C4.9,15,4.7,15,4.5,15.2
							c-0.1,0.2-0.2,0.4-0.1,0.6l2.2,3.8l-0.4,2.9c0,0.2,0.1,0.4,0.2,0.5c0.2,0.1,0.4,0.1,0.5,0c1.3-0.7,3.3-1.7,3.9-1.7
							c0.3,0.2,0.7,0.4,1.1,0.6l-0.9,3c0,0.1,0,0.3,0.1,0.4s0.2,0.2,0.4,0.2c1.4,0,3.1-1.1,3.8-2.4c0.2,0.1,0.5,0.1,1,0.2L16,24.7
							c0,0.2,0.1,0.5,0.3,0.6c0.1,0,0.3,0.1,0.4,0.1c1,0,2-1,2.5-1.8c1.7,0.1,2.1,0.2,2.8,0.2l0,0l-1.1,3.6c0,0.1,0,0.3,0.1,0.4
							s0.2,0.2,0.4,0.2c2.8,0,4.3-3,4.7-4.1c0.3,0,0.6,0,1,0c0.6,0,1.1,0,1.5,0l0,0c0.2,0,0.2,0,0.3,0c4.2-0.6,7.3-4.2,7.4-4.3
							C36.7,19.8,36.7,19.7,36.7,19.5z M33.6,21.3h-4.7c-0.3,0-0.5,0.2-0.5,0.5s0.2,0.5,0.5,0.5H32c-0.9,0.5-1.9,0.9-3,1
							c0,0,0,0-0.1,0l0,0c-0.3,0-0.9,0-1.4,0s-1,0-1.2,0c-0.1,0-0.1,0-0.1,0c-0.2,0-0.4,0.1-0.4,0.3c0,0-1,3.1-3.2,3.7l1-3.4
							c0-0.1,0-0.3-0.1-0.4s-0.2-0.2-0.4-0.2c-0.3,0-0.5,0-0.6-0.1c-0.7-0.1-1.2-0.1-3.1-0.3l0,0c-0.2,0-0.3,0.1-0.4,0.2
							c-0.4,0.6-1,1.3-1.6,1.5l0.3-1.3c0-0.1,0-0.3-0.1-0.4s-0.2-0.2-0.3-0.2c-1-0.1-1.2-0.2-1.5-0.3c-0.1,0-0.1,0-0.2-0.1
							c-0.1,0-0.2-0.1-0.2-0.1c-0.2,0-0.4,0.2-0.5,0.4c-0.3,0.9-1.4,1.7-2.4,2l0.6-2.2l0.2,0.1c0.1,0,0.1,0,0.2,0
							c0.2,0,0.4-0.1,0.5-0.3c0.1-0.3,0-0.5-0.3-0.6L13,21.3c-0.6-0.3-1.1-0.5-1.4-0.8c-0.1-0.1-0.3-0.1-0.5-0.1
							c-0.7,0-2.5,0.8-3.6,1.4l0.3-2.1c0-0.1,0-0.2-0.1-0.3L6,16.8c0.4,0.2,0.9,0.4,1.3,0.6c3,1.4,3.4,1.4,3.6,1.4
							c0.1,0,0.1,0,0.2,0c0.4-0.1,0.8-0.2,1.5-0.4c0.2-0.1,0.4-0.3,0.4-0.5l-0.2-1.7l1.8,1.5c0.1,0.1,0.3,0.2,0.5,0.2l0,0l0,0
							c1.6-0.4,3.4-0.9,4.9-1.1l1.8-0.3c0.3,0,0.5-0.3,0.4-0.6c0-0.3-0.3-0.5-0.6-0.4l-1.3,0.2v-3.9c2.7,0.4,3.9,4.1,3.9,4.2
							c0.1,0.2,0.3,0.3,0.5,0.3c3.7,0,9,2.6,10.7,3.5C35,20.1,34.4,20.7,33.6,21.3z M30.2,19c0-0.2,0.2-0.4,0.4-0.4S31,18.8,31,19
							s-0.2,0.4-0.4,0.4S30.2,19.2,30.2,19z M26.3,21.8c-0.8-1.1-0.8-2.5,0-3.6l0,0c0.2-0.2,0.5-0.3,0.7-0.1
							c0.2,0.2,0.3,0.5,0.1,0.7l0,0c-0.5,0.7-0.5,1.7,0,2.5c0.2,0.2,0.1,0.5-0.1,0.7c-0.1,0-0.2,0-0.3,0C26.5,22,26.4,22,26.3,21.8z
							 M25.2,18.1c0.2,0.2,0.3,0.5,0.1,0.7l0,0c-0.5,0.7-0.5,1.7,0,2.5c0.2,0.2,0.1,0.5-0.1,0.7c-0.1,0-0.2,0-0.3,0
							c-0.2,0-0.3-0.1-0.4-0.2c-0.8-1.1-0.8-2.5,0-3.6l0,0C24.7,17.9,25,17.9,25.2,18.1z M23.6,18.8c-0.5,0.7-0.5,1.7,0,2.5
							c0.2,0.2,0.1,0.5-0.1,0.7c-0.1,0-0.2,0-0.3,0c-0.2,0-0.3-0.1-0.4-0.2c-0.8-1.1-0.8-2.5,0-3.6l0,0c0.2-0.2,0.5-0.3,0.7-0.1
							C23.7,18.2,23.8,18.5,23.6,18.8L23.6,18.8z"/>
					</g>
				</g>
			</g>
		</g>
	</g>
</g>
</svg>
