<?xml version="1.0" encoding="utf-8"?>
<!-- Generator: Adobe Illustrator 25.4.1, SVG Export Plug-In . SVG Version: 6.00 Build 0)  -->
<svg version="1.1" id="Layer_1" xmlns="http://www.w3.org/2000/svg" xmlns:xlink="http://www.w3.org/1999/xlink" x="0px" y="0px"
	 viewBox="0 0 40 40" style="enable-background:new 0 0 40 40;" xml:space="preserve">
<style type="text/css">
	.st0{fill-rule:evenodd;clip-rule:evenodd;fill:#4A4A4A;}
	.st1{fill-rule:evenodd;clip-rule:evenodd;fill:#10BF00;}
	.st2{fill:#FFFFFF;}
</style>
<circle id="Oval" class="st0" cx="20" cy="20" r="20"/>
<circle id="Oval_00000063594808639249497410000008124828095949897092_" class="st1" cx="25.7" cy="23.9" r="5.3"/>
<g>
	<path class="st2" d="M8.9,20c0-4.6,0-9.3,0-13.9c0-1.3,0.8-2.1,2.1-2.1c4.7,0,9.4,0,14.1,0c1.2,0,1.9,0.7,1.8,1.9
		c0,1.2,0,2.5-0.1,3.7c0,0.1-0.1,0.3-0.2,0.4c-0.1-0.1-0.2-0.3-0.2-0.4c0-1.2,0.1-2.5,0.1-3.7c0-0.9-0.5-1.4-1.4-1.4
		c-4.7,0-9.4,0-14.2,0C10,4.4,9.3,5,9.3,6c0,9.3,0,18.7,0,28c0,1,0.6,1.6,1.6,1.6c4.7,0,9.3,0,14,0c0.9,0,1.3-0.4,1.3-1.3
		c0-1,0-2,0-3c0-1.9,0-3.7,0-5.6c0-0.1,0-0.2,0-0.3c0-0.1,0.1-0.1,0.2-0.2c0.1,0.1,0.2,0.1,0.2,0.2c0,0.1,0,0.2,0,0.3
		c0,2.8,0,5.7,0,8.5c0,0.3-0.1,0.7-0.2,1c-0.2,0.6-0.7,0.9-1.4,0.9c-4.8,0-9.6,0-14.4,0c-1.1,0-1.9-0.8-1.9-2
		C8.9,29.3,8.9,24.7,8.9,20z"/>
	<path class="st2" d="M25,7.1c-4.8,0-9.5,0-14.2,0c0,7.9,0,15.7,0,23.6c4.7,0,9.5,0,14.2,0c0-0.2,0-0.4,0-0.5c0-1.5,0-3,0-4.4
		c0-0.1,0-0.3,0-0.4c0-0.1,0.1-0.2,0.2-0.2c0.1,0,0.1,0.1,0.2,0.1c0,0,0,0.1,0,0.2c0,1.9,0,3.7,0,5.6c-5.1,0-10.1,0-15.1,0
		c0-8.1,0-16.3,0-24.5c5,0,10,0,15.1,0c0,0.3,0,0.6,0,0.9c0,0.7,0,1.4,0,2.1c0,0.1-0.1,0.2-0.2,0.4C25.1,9.8,25,9.7,25,9.6
		c0-0.7,0-1.3,0-2C25,7.4,25,7.3,25,7.1z"/>
	<path class="st2" d="M28,16.8c0.6,0,1.1,0,1.6,0c0.1,0,0.3,0,0.4,0.1c0,0.1,0,0.3-0.1,0.4c-1.3,1.7-2.6,3.5-3.9,5.2
		c-0.3,0.3-0.3,0.3-0.6,0c-1.3-1.7-2.6-3.4-3.8-5.2c-0.1-0.1-0.1-0.3-0.1-0.4c0.1,0,0.3-0.1,0.4-0.1c0.5,0,1,0,1.6,0
		c0-0.2,0-0.3,0-0.5c0-1.3,0-2.6,0-3.9c0-0.6,0-0.6,0.6-0.6c1.1,0,2.3,0,3.4,0c0.4,0,0.5,0.1,0.5,0.5C28,13.8,28,15.2,28,16.8z
		 M25.8,22.2c1.2-1.7,2.4-3.3,3.7-4.9c-0.5,0-1,0-1.4,0c-0.3,0-0.4-0.1-0.4-0.4c0-1.2,0-2.4,0-3.6c0-0.3,0-0.6,0-0.9
		c-1.2,0-2.4,0-3.6,0c0,0.1,0,0.3,0,0.4c0,1.4,0,2.7,0,4.1c0,0.4-0.1,0.5-0.5,0.5c-0.4,0-0.9,0-1.4,0C23.4,18.9,24.6,20.5,25.8,22.2
		z"/>
	<path class="st2" d="M30.7,23.4c0-0.3,0-0.6,0-0.8c0-0.1,0.1-0.2,0.2-0.3c0.1,0.1,0.2,0.2,0.2,0.3c0,0.4,0,0.8,0,1.3
		c-3.6,0-7.1,0-10.6,0c0-0.4,0-0.9,0-1.3c0-0.1,0.2-0.2,0.2-0.2c0.1,0.1,0.2,0.2,0.2,0.2c0,0.3,0,0.5,0,0.8
		C24.2,23.4,27.4,23.4,30.7,23.4z"/>
	<path class="st2" d="M18.1,31.8c0.8,0,1.4,0.6,1.4,1.4c0,0.8-0.7,1.4-1.4,1.4c-0.8,0-1.4-0.7-1.4-1.4
		C16.6,32.5,17.3,31.8,18.1,31.8z M19.1,33.3c0-0.5-0.4-1-1-1c-0.6,0-1,0.4-1,1c0,0.5,0.4,1,1,1C18.6,34.3,19.1,33.8,19.1,33.3z"/>
	<path class="st2" d="M18.1,5.7c-0.3,0-0.7,0-1,0c-0.1,0-0.2-0.1-0.3-0.2c0.1-0.1,0.2-0.2,0.3-0.2c0.7,0,1.4,0,2.1,0
		c0.1,0,0.2,0.1,0.3,0.2c-0.1,0.1-0.2,0.2-0.3,0.2C18.8,5.7,18.4,5.7,18.1,5.7z"/>
</g>
</svg>
