<svg width="22" height="22" viewBox="0 0 22 22" fill="none" xmlns="http://www.w3.org/2000/svg">
<path d="M19.5849 2.62508C18.3062 1.34483 16.6334 0.532669 14.8363 0.319659C13.0393 0.10665 11.2229 0.505216 9.68026 1.45104C8.1376 2.39687 6.95867 3.83478 6.3337 5.53275C5.70874 7.23072 5.67419 9.08969 6.23564 10.8097L0.678983 16.3654C0.528826 16.5143 0.409777 16.6916 0.328758 16.887C0.247738 17.0823 0.206364 17.2918 0.207039 17.5033V20.3898C0.207039 20.8167 0.376668 21.2262 0.67861 21.5281C0.980551 21.8299 1.39007 21.9995 1.81708 21.9995H5.03716C5.25067 21.9995 5.45543 21.9147 5.6064 21.7638C5.75737 21.6129 5.84218 21.4081 5.84218 21.1947V19.5849H7.45223C7.66573 19.5849 7.87049 19.5001 8.02146 19.3492C8.17243 19.1982 8.25725 18.9935 8.25725 18.78V17.1703H9.86729C9.97304 17.1703 10.0778 17.1496 10.1755 17.1092C10.2732 17.0688 10.362 17.0096 10.4368 16.9348L11.3988 15.972C12.2041 16.2339 13.0457 16.3666 13.8924 16.3654H13.9025C15.4938 16.3635 17.0489 15.89 18.3713 15.0048C19.6936 14.1196 20.7239 12.8625 21.332 11.3921C21.9401 9.92177 22.0987 8.30421 21.7877 6.7438C21.4767 5.18338 20.7102 3.75012 19.5849 2.62508ZM15.9049 7.91415C15.5865 7.91415 15.2752 7.81974 15.0105 7.64285C14.7457 7.46597 14.5393 7.21456 14.4175 6.92042C14.2956 6.62627 14.2637 6.3026 14.3258 5.99034C14.388 5.67808 14.5413 5.39125 14.7665 5.16612C14.9916 4.94099 15.2785 4.78767 15.5908 4.72556C15.9032 4.66345 16.2269 4.69533 16.5211 4.81716C16.8153 4.939 17.0667 5.14533 17.2436 5.41005C17.4206 5.67478 17.515 5.98601 17.515 6.30439C17.515 6.73132 17.3454 7.14077 17.0434 7.44266C16.7415 7.74455 16.332 7.91415 15.9049 7.91415Z" fill="#fff"/>
</svg>
