<svg width="24" height="24" viewBox="0 0 24 24" fill="none" xmlns="http://www.w3.org/2000/svg">
<path d="M16.7547 10.8679C16.7547 11.8531 16.4626 12.8162 15.9153 13.6353C15.3679 14.4544 14.59 15.0929 13.6798 15.4699C12.7696 15.8469 11.7681 15.9456 10.8018 15.7534C9.83558 15.5612 8.94803 15.0868 8.25141 14.3901C7.55478 13.6935 7.08037 12.806 6.88818 11.8397C6.69598 10.8735 6.79462 9.87192 7.17163 8.96174C7.54864 8.05155 8.18709 7.27361 9.00623 6.72627C9.82537 6.17894 10.7884 5.8868 11.7736 5.8868C13.0942 5.8883 14.3603 6.41357 15.2941 7.34739C16.228 8.28121 16.7532 9.54732 16.7547 10.8679ZM23.5472 11.7736C23.5472 14.1022 22.8567 16.3785 21.563 18.3147C20.2693 20.2508 18.4305 21.7599 16.2792 22.651C14.1278 23.5421 11.7605 23.7753 9.47669 23.321C7.19283 22.8667 5.09498 21.7454 3.44841 20.0988C1.80184 18.4522 0.680519 16.3544 0.226232 14.0705C-0.228055 11.7867 0.00510132 9.41938 0.896217 7.26804C1.78733 5.11669 3.29638 3.27791 5.23254 1.98421C7.1687 0.690509 9.445 0 11.7736 0C14.8951 0.0032964 17.8879 1.24478 20.0952 3.45205C22.3024 5.65931 23.5439 8.65206 23.5472 11.7736ZM21.7359 11.7736C21.7344 10.4327 21.4626 9.10585 20.9366 7.87241C20.4106 6.63898 19.6412 5.5243 18.6745 4.59502C17.7078 3.66575 16.5637 2.94097 15.3104 2.46403C14.0572 1.9871 12.7207 1.7678 11.3808 1.81925C6.04869 2.02529 1.79661 6.46642 1.81133 11.8019C1.81644 14.2308 2.71226 16.5735 4.32907 18.3861C4.98751 17.431 5.82391 16.6119 6.79246 15.9736C6.87504 15.9191 6.97322 15.8931 7.07196 15.8996C7.17071 15.9062 7.2646 15.9449 7.33926 16.0098C8.57003 17.0744 10.1429 17.6602 11.7702 17.6602C13.3975 17.6602 14.9704 17.0744 16.2012 16.0098C16.2758 15.9449 16.3697 15.9062 16.4684 15.8996C16.5672 15.8931 16.6654 15.9191 16.7479 15.9736C17.7177 16.6116 18.5553 17.4307 19.2147 18.3861C20.8395 16.5668 21.7371 14.2128 21.7359 11.7736Z" fill="#fff"/>
</svg>
