<svg width="33" height="33" xmlns="http://www.w3.org/2000/svg"><path d="M5.877 11.527a4.294 4.294 0 118.589 0 4.294 4.294 0 01-8.59 0zm11.95 5.78a1.97 1.97 0 012.86.068 2.155 2.155 0 01-.066 2.967l-.454.453-2.989-2.842.65-.646zm4.55-10.074a4.294 4.294 0 110 8.589 4.294 4.294 0 010-8.59zm2.513 16.152c-.627 1.081-1.21 2.082-1.789 3.087-.26.452-.56.832-1.094 1.014-.687.234-1.283.129-1.817-.217-.406-.224-.88-.615-1.454-1.21l-6.287-5.794a2.03 2.03 0 012.747-2.99l1.614 1.5c1.219 1.104 2.58 2.367 3.614 3.29.103.092.213.179.351.295.094-.132.18-.235.246-.35a852.85 852.85 0 001.885-3.32c.078-.138.157-.28.203-.43.616-2.014 2.173-3.055 4.017-3.661 1.678-.552 3.421.24 4.368 1.8.456.753.911 1.507 1.365 2.26.093-.706.141-1.427.141-2.159C33 7.387 25.613 0 16.5 0S0 7.387 0 16.5c0 .733.048 1.455.141 2.163l1.28-2.126c1.263-2.104 3.536-2.658 5.675-1.436a7.85 7.85 0 012.059 1.708c.226.261.39.582.55.892.8 1.546 1.59 3.098 2.424 4.728l.716-.686 3.007 2.754-.123.109-1.616 1.544a2.04 2.04 0 01-.364.275c-.332.294-.678.582-1.057.866-.74.552-2.078.476-2.74-.7-.579-1.03-1.164-2.057-1.8-3.178-1.032 1.705-2.03 3.35-3.042 5.025A16.444 16.444 0 0016.5 33c4.427 0 8.446-1.744 11.41-4.581l-3.02-5.034z" fill="currentColor" fill-rule="evenodd"/></svg>